<?xml version="1.0" encoding="utf-8"?>
<!-- Generator: Adobe Illustrator 15.0.0, SVG Export Plug-In . SVG Version: 6.00 Build 0)  -->
<!DOCTYPE svg PUBLIC "-//W3C//DTD SVG 1.1//EN" "http://www.w3.org/Graphics/SVG/1.1/DTD/svg11.dtd">
<svg version="1.1" id="Layer_1" xmlns="http://www.w3.org/2000/svg" xmlns:xlink="http://www.w3.org/1999/xlink" x="0px" y="0px"
	 width="193.5px" height="290px" viewBox="0 0 193.5 290" enable-background="new 0 0 193.5 290" xml:space="preserve">
<g>
	<defs>
		<path id="SVGID_1_" d="M100.647,282.5c25.746,0,39.116-8.417,39.116-8.417l-0.496-6.933c0,0,12.874-163.891,13.37-166.861
			c1.485,0,1.979-4.952,2.97-5.942c0.99-0.989,5.447-1.98,5.447-4.951c0-2.971-4.952-3.961-5.942-3.961
			c-0.989,0-2.971-11.884-3.96-14.855c0,0-31.195-7.426-51-7.426c-19.806,0-51,7.426-51,7.426
			c-0.99,2.971-2.971,14.855-3.961,14.855c-0.99,0-5.941,0.99-5.941,3.961c0,2.971,4.457,3.961,5.446,4.951
			c0.991,0.991,1.486,5.942,2.971,5.942c0.495,2.97,13.369,166.861,13.369,166.861l-0.496,6.933c0,0,13.369,8.417,39.117,8.417"/>
	</defs>
	<clipPath id="SVGID_2_">
		<use xlink:href="#SVGID_1_"  overflow="visible"/>
	</clipPath>
	<g clip-path="url(#SVGID_2_)">
		<path fill="#FFFFFF" d="M100.647,282.5c25.746,0,39.116-8.417,39.116-8.417l-0.496-6.933c0,0,12.874-163.891,13.37-166.861
			c1.485,0,1.979-4.952,2.97-5.942c0.99-0.989,5.447-1.98,5.447-4.951c0-2.971-4.952-3.961-5.942-3.961
			c-0.989,0-2.971-11.884-3.96-14.855c0,0-31.195-7.426-51-7.426c-19.806,0-51,7.426-51,7.426
			c-0.99,2.971-2.971,14.855-3.961,14.855c-0.99,0-5.941,0.99-5.941,3.961c0,2.971,4.457,3.961,5.446,4.951
			c0.991,0.991,1.486,5.942,2.971,5.942c0.495,2.97,13.369,166.861,13.369,166.861l-0.496,6.933c0,0,13.369,8.417,39.117,8.417"/>
	</g>
	<g clip-path="url(#SVGID_2_)">
		<linearGradient id="SVGID_3_" gradientUnits="userSpaceOnUse" x1="45.9883" y1="172.8271" x2="152.2556" y2="172.8271">
			<stop  offset="0" style="stop-color:#E3E3E3"/>
			<stop  offset="0.2331" style="stop-color:#FFFFFF"/>
			<stop  offset="0.6442" style="stop-color:#FCFCFC"/>
			<stop  offset="0.7853" style="stop-color:#EBEBEB"/>
			<stop  offset="1" style="stop-color:#CBCBCB"/>
		</linearGradient>
		<path fill="url(#SVGID_3_)" d="M100.647,282.5c25.746,0,39.116-8.417,39.116-8.417l-0.496-6.933c0,0,12.874-163.891,13.37-166.861
			c1.485,0,1.979-4.952,2.97-5.942c0.99-0.989,5.447-1.98,5.447-4.951c0-2.971-4.952-3.961-5.942-3.961
			c-0.989,0-2.971-11.884-3.96-14.855c0,0-31.195-7.426-51-7.426c-19.806,0-51,7.426-51,7.426
			c-0.99,2.971-2.971,14.855-3.961,14.855c-0.99,0-5.941,0.99-5.941,3.961c0,2.971,4.457,3.961,5.446,4.951
			c0.991,0.991,1.486,5.942,2.971,5.942c0.495,2.97,13.369,166.861,13.369,166.861l-0.496,6.933c0,0,13.369,8.417,39.117,8.417"/>
	</g>
	<g clip-path="url(#SVGID_2_)">
		<g>
			<g>
				<path fill="#020202" d="M58.616,118.238c-0.979,0.299-2.254,0.36-2.943,1.214c-0.522,0.647,0.038,2.158,0.91,2.215
					c1.549,0.101,2.706-0.842,4.178,0.331c0.912,0.727,1.218,2.155,0.394,3.046c-0.87,0.941-2.788,0.96-3.98,0.833
					c-0.104-0.011-0.556,0.173-0.312,0.199c1.951,0.208,5.696-0.192,5.192-2.948c-0.219-1.198-1.887-2.344-3.09-2.112
					c-0.969,0.187-2.217,0.862-2.806-0.268c-0.893-1.711,1.37-2.013,2.499-2.358C58.934,118.306,58.896,118.152,58.616,118.238
					L58.616,118.238z"/>
			</g>
		</g>
		<g>
			<g>
				<path fill="#020202" d="M59.743,117.231c3.481-0.208,4.466,3.824,5.34,6.431c0.079,0.236,0.561,0.104,0.483-0.129
					c-0.954-2.845-2.049-6.903-5.787-6.68C59.498,116.87,59.415,117.251,59.743,117.231L59.743,117.231z"/>
			</g>
		</g>
		<g>
			<g>
				<path fill="#020202" d="M60.48,118.54c1.461-0.497,2.922-0.994,4.384-1.49c0.29-0.099,0.204-0.441-0.092-0.341
					c-1.461,0.497-2.922,0.994-4.384,1.49C60.099,118.297,60.185,118.64,60.48,118.54L60.48,118.54z"/>
			</g>
		</g>
		<g>
			<g>
				<path fill="#020202" d="M69.17,116.502c-0.958-0.64-2.043-0.502-2.88,0.269c-1.101,1.013-0.916,2.549,0.146,3.463
					c0.612,0.527,1.436,0.41,1.812-0.31c0.479-0.919,0.372-2.376,0.072-3.33c-0.156,0.05-0.312,0.101-0.468,0.151
					c0.784,0.987,1.863,1.755,2.332,2.96c0.052,0.134,0.527-0.017,0.483-0.129c-0.476-1.225-1.565-2.001-2.362-3.003
					c-0.069-0.087-0.506,0.03-0.468,0.151c0.178,0.564,0.469,4.115-0.693,3.515c-2.202-1.136-0.668-5.062,1.573-3.565
					C68.839,116.755,69.259,116.562,69.17,116.502L69.17,116.502z"/>
			</g>
		</g>
		<g>
			<g>
				<path fill="#020202" d="M68.821,114.389c1.374,2.007,2.347,4.323,4.243,5.917c0.086,0.073,0.464-0.022,0.469-0.147
					c0.083-1.963-1.529-4.089-2.053-5.953c-0.077-0.272-0.386-1.527,0.379-1.159c0.59,0.283,1.017,1.034,1.364,1.541
					c0.592,0.861,1.044,1.819,1.686,2.646c0.062,0.08,0.505-0.047,0.469-0.147c-0.302-0.833-0.652-1.643-0.901-2.494
					c-0.183-0.625,0.013-3.388,1.172-2.276c1.365,1.31,1.566,3.766,2.11,5.48c0.037,0.116,0.517-0.023,0.483-0.129
					c-0.637-2.007-0.859-4.679-2.712-5.992c-0.101-0.071-0.325,0.017-0.413,0.074c-2.138,1.383-0.92,3.543-0.224,5.465
					c0.157-0.049,0.313-0.098,0.469-0.147c-0.499-0.641-2.848-5.681-4.265-4.135c-0.663,0.724,0.156,2.249,0.44,2.978
					c0.514,1.314,1.573,2.923,1.51,4.378c0.157-0.049,0.313-0.098,0.469-0.147c-1.883-1.583-2.851-3.888-4.214-5.88
					C69.221,114.138,68.78,114.329,68.821,114.389L68.821,114.389z"/>
			</g>
		</g>
		<g>
			<g>
				<path fill="#020202" d="M75.37,107.494c1.09,2.962,3.285,5.332,4.375,8.293c0.055,0.149,0.533,0.005,0.483-0.129
					c-1.091-2.962-3.286-5.332-4.375-8.294C75.798,107.215,75.32,107.359,75.37,107.494L75.37,107.494z"/>
			</g>
		</g>
		<g>
			<g>
				<path fill="#020202" d="M81.476,112.943c0.527-0.174,1.81-0.373,2.102-0.955c0.344-0.684-0.643-1.29-1.178-1.485
					c-1.406-0.513-2.969,0.05-2.742,1.757c0.252,1.887,2.426,2.767,4.075,3.026c1.553,0.244,1.873-1.185,2.205-2.414
					c0.06-0.223-0.434-0.163-0.488,0.041c-0.182,0.673-0.364,2.121-1.342,2.067c-0.833-0.046-1.969-0.54-2.692-0.939
					c-0.857-0.474-1.329-1.483-1.306-2.438c0.029-1.211,1.54-1.015,2.244-0.666c0.492,0.205,0.585,0.627,0.28,1.269
					c-0.391,0.177-0.835,0.286-1.244,0.421C81.103,112.722,81.182,113.041,81.476,112.943L81.476,112.943z"/>
			</g>
		</g>
		<g>
			<g>
				<path fill="#020202" d="M86.234,110.374c0.933-0.308,2.011-0.482,2.777-1.14c0.729-0.625,0.551-1.804,0.272-2.597
					c-0.57-1.62-2.495-1.045-3.153,0.158c-0.829,1.515-0.963,4.834,0.799,5.755c1.255,0.656,3.478,0.42,4.122-0.988
					c0.054-0.118-0.416-0.068-0.479,0.071c-0.617,1.349-2.79,1.249-3.761,0.348c-1.024-0.95-0.755-3.189-0.55-4.386
					c0.128-0.748,0.841-1.977,1.781-1.681c0.625,0.196,0.838,0.994,0.941,1.553c0.371,2.005-1.448,2.26-2.929,2.748
					C85.73,110.323,86.032,110.44,86.234,110.374L86.234,110.374z"/>
			</g>
		</g>
	</g>
	<g clip-path="url(#SVGID_2_)">
		<path fill="#3A6836" d="M69.723,192.815c-0.925-0.174-1.82-0.427-2.667-0.775c0.923,1.439,1.939,2.814,3.044,4.113
			c0.004-0.02,0.011-0.04,0.014-0.059C70.272,195.322,70.067,194.146,69.723,192.815z"/>
		<path fill="#3A6836" d="M73.941,193.155c-0.375,0.001-0.749-0.003-1.122-0.016c0.181,0.971,0.25,1.874,0.099,2.62
			c-0.157,0.774-0.523,1.555-0.998,2.389c0.498,0.508,1.004,1.004,1.53,1.483c0.502-0.948,0.888-1.825,0.994-2.544
			C74.575,196.207,74.317,194.766,73.941,193.155z"/>
		<path fill="#3A6836" d="M73.744,171.846c-2.416-0.274-9.614-0.454-9.614,7.17c0,4.197,1.82,6.312,3.791,7.374
			c-0.189-0.911-0.277-1.708-0.161-2.28c0.517-2.548,5.329-5.848,5.945-8.881C73.954,174.002,73.869,172.961,73.744,171.846z"/>
		<path fill="#3A6836" d="M102.066,169.18c-0.256,0.17-2.816,0.269-2.816,0.296v0.011c-1-0.026-2.658-0.126-2.919-0.3
			c-0.397,0.051,0.773,1.933,2.862,2.219C101.309,171.141,102.465,169.229,102.066,169.18z"/>
		<path fill="#3A6836" d="M99.155,167.816l0.004,0.035c0.006,0.001,0.011,0.002,0.02,0.002l0.005-0.045
			c0.237-0.096,1.158-0.312,1.318-0.312c0.204,0,0.455-0.255,0.455-0.255s-0.473-0.561-0.727-0.561c-0.152,0-0.98,0.062-0.98,0.111
			v0.014c-1-0.051-0.918-0.117-1.076-0.117c-0.256,0-0.78,0.562-0.78,0.562s0.249,0.254,0.453,0.254
			C98.005,167.505,98.917,167.721,99.155,167.816z"/>
		<path fill="#3A6836" d="M131.066,186.365c1.954-1.07,3.745-3.185,3.745-7.35c0-7.581-7.118-7.445-9.573-7.174
			c-0.125,1.117-0.21,2.159,0.039,3.387c0.614,3.033,5.428,6.333,5.944,8.881C131.337,184.675,131.252,185.464,131.066,186.365z"/>
		<path fill="#3A6836" d="M128.853,194.879c0.601-0.771,1.175-1.564,1.716-2.383c-0.429,0.123-0.863,0.226-1.307,0.312
			C129.066,193.563,128.918,194.268,128.853,194.879z"/>
		<path fill="#3A6836" d="M126.164,193.14c-0.374,0.013-0.748,0.017-1.124,0.016c-0.375,1.61-0.634,3.052-0.502,3.933
			c0.079,0.541,0.321,1.175,0.648,1.857c0.51-0.491,1.01-0.994,1.493-1.514c-0.283-0.572-0.504-1.124-0.616-1.672
			C125.912,195.013,125.981,194.109,126.164,193.14z"/>
		<path fill="#3A6836" d="M86.66,207.362c0-2.847,3.961-8.293,3.961-10.893s-4.704-9.037-4.704-11.636
			c0-2.6,4.333-6.438,4.333-9.531c0-3.095-2.847-6.809-2.847-11.637c0-4.827,4.828-8.293,4.828-8.293s-2.971,4.828-2.971,7.922
			c0,3.095,3.714,8.047,3.714,12.503c0,4.455-4.58,6.808-4.58,9.16c0,2.352,5.075,7.922,5.075,11.264
			c0,3.309-3.128,6.862-3.197,12.215c0.894,0.217,1.979,0.402,2.979,0.554c0-0.315,0-1.051,0-2.741
			c0-2.724,3.021-5.439,3.021-10.144c0-4.703-5.388-7.913-5.388-10.018s2.789-6.67,3.655-7.66c0.866-0.989-0.141-2.444,0.478-2.444
			c0.495,0,3.437,0.513,4.607,0.72c0.918-0.207,3.236-0.72,3.732-0.72c0.618,0-0.361,1.455,0.505,2.444
			c0.866,0.99,3.72,5.556,3.72,7.66s-5.436,5.314-5.436,10.018c0,4.704,3.104,7.42,3.104,10.144c0,1.574,0,2.319,0,2.669
			c1-0.199,2.41-0.445,3.5-0.742c-0.174-5.207-3.362-8.7-3.362-11.954c0-3.342,5.119-8.912,5.119-11.264
			c0-2.353-4.559-4.705-4.559-9.16c0-4.456,3.725-9.408,3.725-12.503c0-3.094-2.966-7.922-2.966-7.922s4.83,3.466,4.83,8.293
			c0,4.828-2.844,8.542-2.844,11.637c0,3.094,4.332,6.932,4.332,9.531c0,2.599-4.704,9.036-4.704,11.636
			c0,2.523,3.724,7.725,3.94,10.632c0.704-0.265,1.396-0.553,2.078-0.856c-0.986-4.81-3.401-7.865-3.542-10.519
			c-0.179-3.337,4.153-8.978,4.028-11.326c-0.125-2.348-3.914-4.4-4.152-8.851c-0.237-4.45,2.641-7.308,2.476-10.398
			c-0.164-3.09-2.112-8.142-2.112-8.142s4.215,3.246,4.473,8.066c0.257,4.82-2.647,7.136-2.483,10.227
			c0.164,3.09,4.441,7.06,4.579,9.655c0.138,2.595-4.223,8.916-4.085,11.512c0.092,1.737,2.201,5.341,3.633,8.389
			c1.978-1.087,3.845-2.346,5.588-3.754c-0.897-1.432-1.671-2.733-1.871-4.076c-0.16-1.085,0.189-2.489,0.712-3.966
			c-1.573-0.311-3.36-1.055-4.224-2.782c1.113-2.104,1.732-2.971,1.732-4.827c0-1.857-4.084-8.046-4.332-9.532
			c-0.247-1.485,1.608-5.198,1.608-9.159c0-4.209-1.608-7.923-2.723-9.036c0,0,4.58,4.208,4.58,9.53c0,5.323-1.857,4.333-1.608,8.17
			c0.247,3.838,4.332,5.069,4.332,10.027c0,0,1.441,1.117,2.956,1.712c0.264-0.812,0.413-1.515,0.338-2.022
			c-0.345-2.327-5.318-4.464-5.972-8.871c-0.652-4.408,1.395-3.986,1.395-9.834c0-3.096-3.733-8.046-3.733-8.046
			s4.64,1.575,5.346,6.351c0.708,4.774-0.739,8.059-0.285,11.12c0.452,3.062,5.301,6.224,5.682,8.796
			c0.098,0.665-0.025,1.651-0.253,2.787c0.29,0.007,0.788,0.002,1.409-0.074c0.427-1.403,0.718-2.629,0.562-3.406
			c-0.469-2.306-4.518-3.779-5.404-8.146s0.749-6.846,0.296-9.906c-0.668-4.513-5.013-7.521-5.013-7.521s5.892,2.454,6.852,7.186
			c0.191,0.946,0.285,1.774,0.322,2.525c2.659-0.392,8.436-0.656,11.388,3.66c0-0.044,0.003-0.086,0.003-0.129
			c0-20.918-16.958-37.876-37.876-37.876c-20.919,0-37.876,16.958-37.876,37.876c0,0.673,0.019,1.34,0.053,2.005
			c2.42-6.285,9.426-5.976,12.402-5.53c0.037-0.753,0.131-1.583,0.323-2.531c0.96-4.731,6.851-7.186,6.851-7.186
			s-4.345,3.008-5.013,7.521c-0.453,3.061,1.182,5.539,0.296,9.906c-0.887,4.367-4.936,5.841-5.404,8.146
			c-0.157,0.778,0.136,2.006,0.563,3.41c0.629,0.075,1.131,0.077,1.408,0.069c-0.228-1.136-0.351-2.121-0.252-2.786
			c0.381-2.572,5.229-5.733,5.682-8.796c0.453-3.062-0.994-6.346-0.287-11.12c0.707-4.775,5.347-6.351,5.347-6.351
			s-3.733,4.95-3.733,8.046c0,5.848,2.046,5.426,1.395,9.834c-0.653,4.407-5.627,6.544-5.972,8.871
			c-0.075,0.505,0.073,1.203,0.333,2.009c1.502-0.598,2.922-1.698,2.922-1.698c0-4.958,4.084-6.189,4.333-10.027
			c0.248-3.837-1.609-2.847-1.609-8.17c0-5.322,4.58-9.53,4.58-9.53c-1.114,1.113-2.723,4.827-2.723,9.036
			c0,3.961,1.857,7.674,1.609,9.159c-0.247,1.486-4.332,7.675-4.332,9.532c0,1.856,0.619,2.723,1.733,4.827
			c-0.857,1.714-2.622,2.459-4.188,2.773c0.526,1.48,0.875,2.888,0.714,3.975c-0.224,1.517-1.178,2.98-2.222,4.637
			c1.782,1.37,3.688,2.584,5.701,3.625c1.426-3.132,3.735-7.001,3.832-8.82c0.138-2.596-4.224-8.917-4.085-11.512
			c0.138-2.596,4.416-6.565,4.58-9.655c0.164-3.091-2.741-5.406-2.484-10.227c0.256-4.82,4.472-8.066,4.472-8.066
			s-1.948,5.052-2.112,8.142c-0.165,3.091,2.713,5.948,2.476,10.398c-0.238,4.45-4.027,6.503-4.153,8.851
			c-0.124,2.349,4.207,7.989,4.029,11.326c-0.146,2.729-2.698,5.879-3.625,10.927 M99.162,174.533
			c-0.001-0.001-0.004-0.002-0.005-0.003c-0.008-0.001-0.021-0.001-0.01-0.004c0.008,0.002,0.007,0.003,0.01,0.004
			c0.001,0,0.005,0.001,0.005,0.001V174.533z M106.75,166.377c-1.146,6.211-6.5,7.942-7.5,8.136v0.007
			c-1-0.191-6.433-1.924-7.58-8.136c-0.153-2.65,0.015-2.701,0.371-2.854c0.357-0.153,1.366,0.408,2.182,0.459
			c0.815,0.051,1.676-0.51,1.931-0.51s1.345,0.437,1.651,0.437s1.154-4.718-3.031-4.718c-1.937,0.051-2.346,0.306-2.805,0.203
			c-0.459-0.102,1.122-4.332,7.187-4.74l0.029-0.008c6.064,0.408,7.645,4.639,7.186,4.741c-0.458,0.102-0.865-0.153-2.803-0.205
			c-4.186,0-3.334,4.719-3.029,4.719c0.306,0,1.397-0.437,1.653-0.437c0.255,0,1.122,0.561,1.937,0.51s1.857-0.611,2.214-0.459
			C106.7,163.675,106.902,163.726,106.75,166.377z M92.479,160.37c1.835-0.766,4.026,1.069,3.619,1.478c0,0-1.427-0.205-2.294-0.255
			c-0.867-0.052-1.173,0.51-1.58,0.355C91.816,161.796,91.561,160.828,92.479,160.37z M106.116,161.941
			c-0.407,0.153-0.713-0.407-1.58-0.357c-0.866,0.052-2.293,0.256-2.293,0.256c-0.408-0.408,1.784-2.242,3.619-1.479
			C106.78,160.82,106.524,161.788,106.116,161.941z M99.25,152.851c0-0.002,0-0.004,0-0.005c0,0.001,0.043,0.003,0.042,0.005
			c-6.591-0.169-13.498,3.549-13.498,3.549s-2.354-4.056-4.382-7.604c1.689-0.17,7.103,2.197,7.103,2.197s-0.843-1.521-3.039-5.577
			c5.238,0,9.295,4.225,10.141,5.07c0.1-0.067,0.316-0.134,0.583-0.199l0.672-0.716c-2.67-0.936-4.595-3.453-4.639-6.434
			c0.827,1.744,2.599,2.952,4.658,2.952c2.848,0,5.158-2.308,5.158-5.157c0-2.192-1.37-4.06-3.299-4.807
			c0.136-0.008,0.271-0.021,0.411-0.021c3.827,0,6.932,3.103,6.932,6.932c0,2.866-1.742,5.32-4.226,6.374l0.897,0.953
			c0.127,0.04,0.23,0.08,0.291,0.122c0.844-0.846,4.901-5.07,10.14-5.07c-2.198,4.056-3.042,5.577-3.042,5.577
			s5.408-2.367,7.098-2.197c-2.028,3.549-4.439,7.604-4.439,7.604S106.25,152.682,99.25,152.851z"/>
	</g>
	<path clip-path="url(#SVGID_2_)" fill="#CCCCCC" d="M100.25,83.573V83.5c0,0-0.247,0-0.346,0c-0.098,0-0.654,0-0.654,0v0.073
		c-21,0.091-57.761,5.087-57.761,6.285c0,1.693,5.104,2.66,5.104,2.66s-2.397,0.06-2.397-1.037c0-0.483,30.459-5.044,55.667-5.059
		c25.208,0.015,55.656,4.575,55.656,5.059c0,1.097-2.435,1.037-2.435,1.037s5.059-0.967,5.059-2.66
		C158.143,88.661,121.25,83.664,100.25,83.573z"/>
	<linearGradient id="SVGID_4_" gradientUnits="userSpaceOnUse" x1="103.25" y1="263.5205" x2="103.25" y2="280.0291">
		<stop  offset="0.0798" style="stop-color:#E3E3E3;stop-opacity:0.47"/>
		<stop  offset="0.4356" style="stop-color:#E3E3E3;stop-opacity:0.6"/>
		<stop  offset="1" style="stop-color:#FFFFFF"/>
		<stop  offset="1" style="stop-color:#CBCBCB"/>
	</linearGradient>
	<path clip-path="url(#SVGID_2_)" fill="url(#SVGID_4_)" d="M150.25,261.704c0,0-5.738,13.864-47,13.864
		c-41.262,0-47-13.864-47-13.864v-7.428c0,0,6.728,14.855,46.67,14.855c39.941,0,47.33-14.855,47.33-14.855V261.704z"/>
	<path clip-path="url(#SVGID_2_)" fill="none" stroke="#E0E2E0" stroke-width="5" stroke-miterlimit="10" d="M151.152,68.58
		c0,0-31.195-7.426-51-7.426c-19.806,0-51,7.426-51,7.426"/>
</g>
</svg>
