<?xml version="1.0" encoding="utf-8"?>
<!-- Generator: Adobe Illustrator 15.0.0, SVG Export Plug-In . SVG Version: 6.00 Build 0)  -->
<!DOCTYPE svg PUBLIC "-//W3C//DTD SVG 1.1//EN" "http://www.w3.org/Graphics/SVG/1.1/DTD/svg11.dtd">
<svg version="1.1" id="Layer_1" xmlns="http://www.w3.org/2000/svg" xmlns:xlink="http://www.w3.org/1999/xlink" x="0px" y="0px"
	 width="193.5px" height="290px" viewBox="0 0 193.5 290" enable-background="new 0 0 193.5 290" xml:space="preserve">
<path opacity="0.2" fill="#95EABF" enable-background="new    " d="M120.578,45.149c0.226-0.975-1.641-2.252-4.207-2.869
	c-2.572-0.618-4.82-0.323-5.053,0.65l0.004,0.001c-0.226,0.975,1.641,2.252,4.207,2.869c2.572,0.618,4.82,0.323,5.053-0.65
	L120.578,45.149z"/>
<g>
	<path fill="#503906" d="M99,280.92c-22.914,0-40-6.154-40-11.658v-0.141l-11.886-86.995c0.245-8.119,10.376-15.765,43.971-15.765
		c33.623,0,56.947,9.004,57.153,17.128L139,269.145v0.117C139,274.766,121.917,280.92,99,280.92z"/>
</g>
<path fill="#634C24" d="M148.555,183.086c0.012-0.143,0.024-0.086,0.029-0.086h-0.078c-1.462-9-24.626-16.764-57.307-16.764
	c-32.652,0-43.028,7.764-43.812,14.764H47.34c0.002,0,0.022,0.393,0.029,0.479c-0.011,0.145-0.025,0.459-0.029,0.604l0.078,0.022
	c1.461,7.938,24.625,16.209,57.307,16.209c32.651,0,43.028-7.312,43.812-15.312h0.047C148.582,183,148.562,183.171,148.555,183.086z
	"/>
<path opacity="0.38" fill="#DEEEE6" stroke="#BDC1BF" stroke-width="0.9426" stroke-miterlimit="10" enable-background="new    " d="
	M157.307,133.329c0.596-0.933,0.924-1.888,0.924-2.865c0-9.127-27.049-16.526-60.416-16.526c-33.369,0-60.417,7.399-60.417,16.526
	c0,0.876,0.254,1.736,0.734,2.576c-2.646,1.817-4.104,3.788-4.104,5.849c0,9.126,28.423,16.526,63.486,16.526
	s63.483-7.399,63.483-16.526C160.998,136.938,159.689,135.066,157.307,133.329z"/>
<ellipse opacity="0.38" fill="#D4EEE0" stroke="#BDC1BF" stroke-width="0.9426" stroke-miterlimit="10" enable-background="new    " cx="97.814" cy="131.306" rx="60.416" ry="16.527"/>
<g opacity="0.18">
	<g>
		<g enable-background="new    ">
			<g enable-background="new    ">
				<g>
					<g>
						<g>
							<defs>
								<path id="SVGID_1_" d="M114.754,167.273c0.645,0.351,1.504,0.815,2.148,1.168c6.447,3.507,12.892,7.014,19.338,10.52
									c-1.124-0.611-2.396-0.865-3.831-0.664l-21.486-11.688C112.359,166.407,113.63,166.662,114.754,167.273z"/>
							</defs>
							<clipPath id="SVGID_2_">
								<use xlink:href="#SVGID_1_"  overflow="visible"/>
							</clipPath>
							<g clip-path="url(#SVGID_2_)" enable-background="new    ">
								<path fill="#7B8B80" d="M132.409,178.297l-21.486-11.688c0.871-0.123,1.681-0.077,2.435,0.113l21.486,11.688
									C134.09,178.221,133.279,178.175,132.409,178.297"/>
								<path fill="#77867C" d="M134.844,178.411l-21.486-11.688c0.402,0.104,0.789,0.245,1.158,0.428l21.486,11.688
									C135.631,178.656,135.246,178.514,134.844,178.411"/>
								<path fill="#738278" d="M136.002,178.838l-21.486-11.688c0.08,0.039,0.16,0.08,0.238,0.123l21.486,11.688
									C136.162,178.919,136.082,178.877,136.002,178.838"/>
							</g>
						</g>
					</g>
				</g>
			</g>
			<g>
				<polygon fill="#849589" points="114.781,183.488 93.295,171.801 110.923,166.609 132.409,178.297 				"/>
			</g>
			<g>
				<path fill="#A2B7A9" d="M132.409,178.297c9.268-1.303,11.71,16.419,11.69,26.424c-0.021,10.002-9.207,11.25-18.477,12.553
					l-10.078,5.938c-9.27,1.302-10.9-2.946-10.883-12.948c0.02-10.005,0.848-25.472,10.115-26.771L132.409,178.297z"/>
			</g>
			<g enable-background="new    ">
				<g>
					<g>
						<g>
							<defs>
								<path id="SVGID_3_" d="M108.427,222.562l-21.486-11.688c-3.079-1.675-3.774-5.756-3.762-12.302
									c0.019-10.004,0.848-25.471,10.116-26.772l21.486,11.688c-9.268,1.303-10.098,16.77-10.116,26.772
									C104.652,216.807,105.348,220.889,108.427,222.562z"/>
							</defs>
							<clipPath id="SVGID_4_">
								<use xlink:href="#SVGID_3_"  overflow="visible"/>
							</clipPath>
							<g clip-path="url(#SVGID_4_)" enable-background="new    ">
								<path fill="#616D65" d="M108.427,222.562l-21.486-11.688c-3.079-1.675-3.774-5.756-3.762-12.302
									c0.011-5.819,0.296-13.488,2.358-19.144l21.486,11.688c-2.062,5.652-2.349,13.32-2.358,19.145
									C104.652,216.807,105.348,220.889,108.427,222.562"/>
								<path fill="#647169" d="M107.023,191.119l-21.486-11.688c0.315-0.865,0.672-1.686,1.076-2.438l21.487,11.688
									C107.695,189.438,107.338,190.255,107.023,191.119"/>
								<path fill="#68766D" d="M108.1,188.682l-21.487-11.688c0.264-0.495,0.549-0.967,0.855-1.403l21.486,11.688
									C108.648,187.717,108.363,188.186,108.1,188.682"/>
								<path fill="#6C7A71" d="M108.954,187.277L87.468,175.59c0.245-0.354,0.504-0.686,0.779-0.997l21.485,11.688
									C109.458,186.593,109.199,186.926,108.954,187.277"/>
								<path fill="#707E74" d="M109.732,186.281l-21.485-11.688c0.249-0.282,0.511-0.549,0.785-0.796l21.485,11.688
									C110.244,185.732,109.982,185.998,109.732,186.281"/>
								<path fill="#738278" d="M110.518,185.484l-21.484-11.688c0.276-0.248,0.565-0.478,0.868-0.687l21.486,11.688
									C111.083,185.008,110.794,185.236,110.518,185.484"/>
								<path fill="#77867C" d="M111.385,184.8l-21.486-11.688c0.365-0.25,0.75-0.471,1.156-0.656l21.485,11.688
									C112.137,184.328,111.75,184.549,111.385,184.8"/>
								<path fill="#7B8B80" d="M112.541,184.141l-21.485-11.688c0.686-0.316,1.431-0.539,2.24-0.652l21.486,11.688
									C113.973,183.604,113.227,183.824,112.541,184.141"/>
							</g>
						</g>
					</g>
				</g>
			</g>
		</g>
	</g>
</g>
<g opacity="0.18">
	<g>
		<g enable-background="new    ">
			<g enable-background="new    ">
				<g>
					<g>
						<g>
							<defs>
								<path id="SVGID_5_" d="M85.796,205.184c7.162,3.896,14.324,7.793,21.486,11.688c-1.231-0.67-2.812-0.921-4.833-0.638
									l-21.486-11.688C82.986,204.264,84.565,204.514,85.796,205.184z"/>
							</defs>
							<clipPath id="SVGID_6_">
								<use xlink:href="#SVGID_5_"  overflow="visible"/>
							</clipPath>
							<g clip-path="url(#SVGID_6_)" enable-background="new    ">
								<path fill="#7B8B80" d="M102.449,216.234l-21.486-11.688c1.349-0.188,2.501-0.142,3.484,0.11l21.485,11.688
									C104.95,216.094,103.798,216.045,102.449,216.234"/>
								<path fill="#77867C" d="M105.934,216.346l-21.484-11.688c0.408,0.105,0.788,0.244,1.14,0.418l21.486,11.688
									C106.721,216.591,106.341,216.45,105.934,216.346"/>
								<path fill="#738278" d="M107.073,216.764l-21.486-11.688c0.071,0.033,0.141,0.068,0.209,0.107l21.486,11.688
									C107.213,216.834,107.145,216.798,107.073,216.764"/>
							</g>
						</g>
					</g>
				</g>
			</g>
			<g enable-background="new    ">
				<g>
					<g>
						<g>
							<defs>
								<path id="SVGID_7_" d="M82.731,257.832l-21.486-11.688c-2.344-1.274-3.842-3.352-3.836-6.603l21.486,11.688
									C78.89,254.482,80.388,256.557,82.731,257.832z"/>
							</defs>
							<clipPath id="SVGID_8_">
								<use xlink:href="#SVGID_7_"  overflow="visible"/>
							</clipPath>
							<g clip-path="url(#SVGID_8_)" enable-background="new    ">
								<path fill="#616D65" d="M82.731,257.832l-21.486-11.688c-2.344-1.274-3.842-3.352-3.836-6.603l21.486,11.688
									C78.89,254.482,80.388,256.557,82.731,257.832"/>
							</g>
						</g>
					</g>
				</g>
			</g>
			<g>
				<polygon fill="#5D6961" points="78.896,251.23 57.41,239.544 54.93,220.886 76.416,232.574 				"/>
			</g>
			<g>
				<path fill="#A2B7A9" d="M102.449,216.234c9.268-1.303,9.209,8.629,9.191,18.632l4.176,10.27
					c-0.02,10.003-4.178,12.359-13.446,13.662c-9.268,1.304-23.493,2.438-23.475-7.565l-2.479-18.655
					C76.435,222.57,93.181,217.537,102.449,216.234z"/>
			</g>
			<g enable-background="new    ">
				<g>
					<g>
						<g>
							<defs>
								<path id="SVGID_9_" d="M76.416,232.574L54.93,220.886c0.019-10.003,16.765-15.036,26.033-16.339l21.486,11.688
									C93.181,217.537,76.435,222.57,76.416,232.574z"/>
							</defs>
							<clipPath id="SVGID_10_">
								<use xlink:href="#SVGID_9_"  overflow="visible"/>
							</clipPath>
							<g clip-path="url(#SVGID_10_)" enable-background="new    ">
								<path fill="#616D65" d="M76.416,232.574L54.93,220.886c0.002-1.055,0.19-2.055,0.536-3.001l21.486,11.688
									C76.606,230.52,76.418,231.52,76.416,232.574"/>
								<path fill="#647169" d="M76.952,229.573l-21.486-11.688c0.157-0.429,0.346-0.846,0.564-1.253l21.486,11.688
									C77.297,228.727,77.108,229.145,76.952,229.573"/>
								<path fill="#68766D" d="M77.516,228.32L56.03,216.632c0.202-0.375,0.429-0.739,0.678-1.096l21.486,11.688
									C77.944,227.58,77.718,227.945,77.516,228.32"/>
								<path fill="#6C7A71" d="M78.194,227.225l-21.486-11.688c0.271-0.387,0.568-0.762,0.89-1.124L79.084,226.1
									C78.762,226.464,78.465,226.839,78.194,227.225"/>
								<path fill="#707E74" d="M79.084,226.1l-21.486-11.688c0.384-0.436,0.804-0.854,1.253-1.26l21.486,11.688
									C79.888,225.246,79.469,225.665,79.084,226.1"/>
								<path fill="#738278" d="M80.338,224.841l-21.486-11.688c0.637-0.57,1.335-1.113,2.082-1.631L82.42,223.21
									C81.673,223.725,80.975,224.268,80.338,224.841"/>
								<path fill="#77867C" d="M82.419,223.211l-21.486-11.688c1.324-0.912,2.8-1.731,4.358-2.463l21.485,11.688
									C85.219,221.479,83.743,222.299,82.419,223.211"/>
								<path fill="#7B8B80" d="M86.777,220.747l-21.485-11.687c5.182-2.438,11.27-3.896,15.671-4.516l21.486,11.688
									C98.048,216.854,91.959,218.312,86.777,220.747"/>
							</g>
						</g>
					</g>
				</g>
			</g>
		</g>
	</g>
</g>
<path opacity="0.2" fill="#95EABF" enable-background="new    " d="M71.24,248.14c0.226-0.975-1.641-2.252-4.207-2.868
	c-2.572-0.618-4.82-0.323-5.053,0.649l0.004,0.002c-0.226,0.975,1.641,2.252,4.207,2.868c2.572,0.618,4.82,0.323,5.053-0.649
	L71.24,248.14z"/>
<g opacity="0.18">
	<g>
		<g enable-background="new    ">
			<g enable-background="new    ">
				<g>
					<g>
						<g>
							<defs>
								<path id="SVGID_11_" d="M115.163,219.331c7.162,3.896,14.323,7.792,21.485,11.688c-0.354-0.193-0.736-0.371-1.151-0.533
									c-5.06-1.987-13.022-4-19.399-3.104l-21.486-11.688c6.376-0.896,14.339,1.117,19.4,3.104
									C114.426,218.961,114.809,219.139,115.163,219.331z"/>
							</defs>
							<clipPath id="SVGID_12_">
								<use xlink:href="#SVGID_11_"  overflow="visible"/>
							</clipPath>
							<g clip-path="url(#SVGID_12_)" enable-background="new    ">
								<path fill="#7B8B80" d="M116.098,227.383l-21.486-11.688c4.271-0.604,9.254,0.104,13.6,1.23l21.486,11.688
									C125.354,227.486,120.37,226.782,116.098,227.383"/>
								<path fill="#77867C" d="M129.698,228.615l-21.486-11.688c2.142,0.556,4.128,1.216,5.8,1.87
									c0.271,0.105,0.529,0.221,0.775,0.34l21.486,11.688c-0.246-0.119-0.504-0.232-0.776-0.339
									C133.827,229.83,131.84,229.172,129.698,228.615"/>
								<path fill="#738278" d="M136.273,230.825l-21.486-11.688c0.129,0.062,0.254,0.127,0.376,0.193l21.485,11.688
									C136.527,230.953,136.402,230.889,136.273,230.825"/>
							</g>
						</g>
					</g>
				</g>
			</g>
			<g enable-background="new    ">
				<g>
					<g>
						<g>
							<defs>
								<path id="SVGID_13_" d="M110.161,267.562l-21.486-11.688c-6.318-3.437-11.669-8.327-8.756-15.084l21.485,11.688
									C98.492,259.234,103.842,264.125,110.161,267.562z"/>
							</defs>
							<clipPath id="SVGID_14_">
								<use xlink:href="#SVGID_13_"  overflow="visible"/>
							</clipPath>
							<g clip-path="url(#SVGID_14_)" enable-background="new    ">
								<path fill="#616D65" d="M110.161,267.562l-21.486-11.688c-6.122-3.33-11.335-8.024-9.003-14.459l21.485,11.688
									C98.825,259.537,104.039,264.232,110.161,267.562"/>
								<path fill="#647169" d="M101.157,253.104l-21.485-11.688c0.075-0.206,0.157-0.415,0.248-0.625l21.486,11.688
									C101.314,252.688,101.232,252.896,101.157,253.104"/>
							</g>
						</g>
					</g>
				</g>
			</g>
			<g>
				<polygon fill="#66746B" points="101.404,252.479 79.919,240.79 85.496,221.76 106.982,233.448 				"/>
			</g>
			<g>
				<path fill="#A2B7A9" d="M116.098,227.383c6.377-0.896,14.34,1.116,19.399,3.104c8.308,3.261,4.188,12.717,0.071,22.259
					l-0.711,11.847c-2.354,5.465-4.821,7.877-8.057,8.331c-2.419,0.343-5.268-0.416-8.822-1.812
					c-8.299-3.26-20.691-9.079-16.574-18.633l5.576-19.027C108.586,229.723,112.018,227.956,116.098,227.383z"/>
			</g>
			<g enable-background="new    ">
				<g>
					<g>
						<g>
							<defs>
								<path id="SVGID_15_" d="M106.982,233.448L85.496,221.76c1.604-3.727,5.036-5.492,9.116-6.064l21.486,11.688
									C112.018,227.956,108.586,229.723,106.982,233.448z"/>
							</defs>
							<clipPath id="SVGID_16_">
								<use xlink:href="#SVGID_15_"  overflow="visible"/>
							</clipPath>
							<g clip-path="url(#SVGID_16_)" enable-background="new    ">
								<path fill="#647169" d="M106.982,233.448L85.496,221.76c0.113-0.262,0.235-0.515,0.366-0.758l21.486,11.688
									C107.217,232.934,107.096,233.186,106.982,233.448"/>
								<path fill="#68766D" d="M107.348,232.689l-21.486-11.688c0.175-0.326,0.366-0.636,0.571-0.929l21.486,11.688
									C107.713,232.055,107.521,232.363,107.348,232.689"/>
								<path fill="#6C7A71" d="M107.919,231.762l-21.486-11.688c0.193-0.276,0.4-0.537,0.619-0.784l21.486,11.688
									C108.318,231.225,108.111,231.484,107.919,231.762"/>
								<path fill="#707E74" d="M108.538,230.977l-21.486-11.688c0.229-0.26,0.471-0.504,0.726-0.732l21.486,11.688
									C109.009,230.475,108.768,230.718,108.538,230.977"/>
								<path fill="#738278" d="M109.264,230.244l-21.486-11.688c0.301-0.271,0.619-0.521,0.952-0.752l21.486,11.688
									C109.882,229.725,109.564,229.975,109.264,230.244"/>
								<path fill="#77867C" d="M110.216,229.492L88.73,217.805c0.48-0.332,0.993-0.623,1.533-0.877l21.485,11.688
									C111.208,228.869,110.695,229.161,110.216,229.492"/>
								<path fill="#7B8B80" d="M111.748,228.615l-21.485-11.688c1.309-0.616,2.782-1.013,4.35-1.233l21.487,11.688
									C114.529,227.604,113.059,227.999,111.748,228.615"/>
							</g>
						</g>
					</g>
				</g>
			</g>
		</g>
	</g>
</g>
<path opacity="0.49" fill="#95EABF" enable-background="new    " d="M111.34,42.941c0.232-0.973,2.48-1.268,5.053-0.65
	c2.57,0.617,4.439,1.898,4.207,2.873l-20.408,86.182c-0.232,0.976-2.48,1.271-5.052,0.651c-2.572-0.618-4.454-1.901-4.221-2.876
	L111.34,42.941z"/>
<path opacity="0.31" fill="#95EABF" enable-background="new    " d="M90.975,128.682c0.233-0.975,2.481-1.27,5.053-0.65
	c2.572,0.615,4.439,1.898,4.207,2.871L71.343,248.191c-0.233,0.976-2.481,1.27-5.052,0.649c-2.571-0.614-4.454-1.899-4.221-2.875
	L90.975,128.682z"/>
<ellipse opacity="0.25" fill="#C1C1B4" enable-background="new    " cx="99.344" cy="269.262" rx="41.924" ry="13.543"/>
<path opacity="0.35" fill="#BAD2C2" enable-background="new    " d="M139.997,269.262c0,7.479-18.771,13.543-41.923,13.543
	c-23.153,0-41.923-6.062-41.923-13.543L37.298,134.579c0-10.56,26.501-19.121,59.193-19.121c32.69,0,59.19,8.562,59.19,19.121
	L139.997,269.262z"/>
</svg>
