<?xml version="1.0" encoding="utf-8"?>
<!-- Generator: Adobe Illustrator 15.0.0, SVG Export Plug-In . SVG Version: 6.00 Build 0)  -->
<!DOCTYPE svg PUBLIC "-//W3C//DTD SVG 1.1//EN" "http://www.w3.org/Graphics/SVG/1.1/DTD/svg11.dtd">
<svg version="1.1" id="Layer_1" xmlns="http://www.w3.org/2000/svg" xmlns:xlink="http://www.w3.org/1999/xlink" x="0px" y="0px"
	 width="193.5px" height="290px" viewBox="0 0 193.5 290" enable-background="new 0 0 193.5 290" xml:space="preserve">
<path opacity="0.2" fill="#95EABF" enable-background="new    " d="M120.578,45.149c0.226-0.975-1.641-2.252-4.207-2.869
	c-2.572-0.618-4.82-0.323-5.053,0.65l0.004,0.001c-0.226,0.975,1.641,2.252,4.207,2.869c2.572,0.618,4.82,0.323,5.053-0.65
	L120.578,45.149z"/>
<g>
	<radialGradient id="SVGID_1_" cx="99.6504" cy="272.415" r="50.3254" gradientUnits="userSpaceOnUse">
		<stop  offset="0" style="stop-color:#FFFFFF"/>
		<stop  offset="1" style="stop-color:#D0F1FF"/>
	</radialGradient>
	<path opacity="0.51" fill="url(#SVGID_1_)" d="M30.4,266.754c0,5.686,25.286,0.824,14.443,8.664
		c-4.104,2.967,33.636,6.492,27.904,8.68c-14.473,5.527,29.825,4.762,35.622,4.643c7.467,0,38.119-1.438,29.947-6.094
		c-8.633-4.918,30.387-4.834,22.525-9.279c-5.018-2.838,8.057-3.477,8.057-7.246c0-10.76-52.5-10.127-68.5-10.127
		C84.4,255.994,30.4,256.893,30.4,266.754z"/>
	<g>
		<path fill="#503906" d="M98.958,280.762c-22.913,0-39.999-6.154-39.999-11.658v-0.141l-5.743-42.312
			c0.245-8.119,4.233-12.447,37.828-12.447c33.623,0,52.188,4.135,52.393,12.26l-4.479,42.523v0.117
			C138.958,274.607,121.876,280.762,98.958,280.762z"/>
	</g>
	<path fill="#634C24" d="M143.292,225.307c0.01-0.111,0.021-0.066,0.025-0.066h-0.068c-1.301-7.004-21.896-13.045-50.953-13.045
		c-29.032,0-38.259,6.041-38.954,11.488h-0.043c0.002,0,0.02,0.307,0.026,0.373c-0.011,0.111-0.022,0.357-0.026,0.469l0.069,0.02
		c1.3,6.176,21.896,12.611,50.951,12.611c29.033,0,38.26-5.689,38.957-11.916h0.041C143.315,225.24,143.3,225.373,143.292,225.307z"
		/>
	
		<path opacity="0.38" fill="#DEEEE6" stroke="#BDC1BF" stroke-width="0.9426" stroke-miterlimit="10" enable-background="new    " d="
		M158.265,133.172c0.596-0.933,0.924-1.888,0.924-2.865c0-9.127-27.049-16.526-60.416-16.526c-33.368,0-60.415,7.399-60.415,16.526
		c0,0.876,0.254,1.736,0.733,2.576c-2.646,1.817-4.104,3.788-4.104,5.849c0,9.126,28.424,16.526,63.485,16.526
		c35.062,0,63.484-7.4,63.484-16.526C161.956,136.78,160.647,134.909,158.265,133.172z"/>
	
		<ellipse opacity="0.38" fill="#D4EEE0" stroke="#BDC1BF" stroke-width="0.9426" stroke-miterlimit="10" enable-background="new    " cx="98.772" cy="131.149" rx="60.416" ry="16.527"/>
	<path opacity="0.2" fill="#95EABF" enable-background="new    " d="M72.199,247.957c0.225-0.975-1.641-2.252-4.207-2.867
		c-2.572-0.619-4.82-0.324-5.053,0.648l0.004,0.002c-0.227,0.975,1.641,2.252,4.207,2.869c2.572,0.617,4.82,0.322,5.053-0.65
		L72.199,247.957z"/>
	<path opacity="0.49" fill="#95EABF" enable-background="new    " d="M112.298,42.785c0.232-0.973,2.48-1.268,5.053-0.651
		c2.57,0.617,4.439,1.899,4.207,2.873l-20.408,86.182c-0.232,0.975-2.48,1.27-5.052,0.651c-2.572-0.618-4.455-1.901-4.222-2.876
		L112.298,42.785z"/>
	<path opacity="0.31" fill="#95EABF" enable-background="new    " d="M91.934,128.524c0.233-0.975,2.481-1.27,5.053-0.651
		c2.571,0.616,4.438,1.899,4.206,2.872L72.302,248.033c-0.233,0.977-2.481,1.27-5.052,0.652s-4.454-1.902-4.221-2.875
		L91.934,128.524z"/>
	<ellipse opacity="0.25" fill="#C1C1B4" enable-background="new    " cx="99.302" cy="269.104" rx="41.924" ry="13.543"/>
	<path opacity="0.35" fill="#BAD2C2" enable-background="new    " d="M140.956,269.104c0,7.48-18.771,13.543-41.924,13.543
		s-41.923-6.062-41.923-13.543L38.257,134.422c0-10.56,26.501-19.121,59.193-19.121c32.689,0,59.189,8.562,59.189,19.121
		L140.956,269.104z"/>
	<path opacity="0.2" fill="#95EABF" enable-background="new    " d="M121.536,44.967c0.227-0.975-1.641-2.252-4.207-2.869
		c-2.572-0.618-4.82-0.323-5.053,0.65l0.004,0.001c-0.225,0.975,1.641,2.252,4.207,2.869c2.572,0.618,4.82,0.323,5.053-0.65
		L121.536,44.967z"/>
</g>
</svg>
