<?xml version="1.0" encoding="utf-8"?>
<!-- Generator: Adobe Illustrator 15.0.0, SVG Export Plug-In . SVG Version: 6.00 Build 0)  -->
<!DOCTYPE svg PUBLIC "-//W3C//DTD SVG 1.1//EN" "http://www.w3.org/Graphics/SVG/1.1/DTD/svg11.dtd">
<svg version="1.1" id="Layer_1" xmlns="http://www.w3.org/2000/svg" xmlns:xlink="http://www.w3.org/1999/xlink" x="0px" y="0px"
	 width="266px" height="137px" viewBox="0 0 266 137" enable-background="new 0 0 266 137" xml:space="preserve">
<path fill="#D82174" d="M118.234,33.693c0.106-0.109,0.217-0.217,0.326-0.322c6.513-6.328,14.296-7.667,22.579-7.667
	c22.42,0,37.387,29.297,37.387,29.297L135.39,54.82c0,0-6.374-12.29-16.949-20.9"/>
<path fill="#FF0D6A" d="M237.448,66.684c0,0,9.548-50.684-11.287-50.684c0,0-52.5,21.568-98.506,21.568
	C81.645,37.568,31.295,16,31.295,16C10.462,16,20.01,66.505,20.01,66.505s37.347,21.657,106.783,21.657
	C196.229,88.162,237.448,66.684,237.448,66.684z"/>
<g>
	<defs>
		<path id="SVGID_1_" d="M237.448,65.684c0,0,12.718-58.35-11.287-50.684c0,0-52.5,21.568-98.506,21.568
			C81.645,36.568,31.295,15,31.295,15C6.167,6.667,20.01,65.505,20.01,65.505s37.347,21.657,106.783,21.657
			C196.229,87.162,237.448,65.684,237.448,65.684z"/>
	</defs>
	<clipPath id="SVGID_2_">
		<use xlink:href="#SVGID_1_"  overflow="visible"/>
	</clipPath>
	<path clip-path="url(#SVGID_2_)" fill="#F42C7D" d="M240.448,40.684c0,0-44.219,21.479-113.655,21.479
		c-69.436,0-109.783-21.657-109.783-21.657v14c0,0,40.347,21.657,109.783,21.657c69.437,0,113.655-21.479,113.655-21.479V40.684z"/>
	<path clip-path="url(#SVGID_2_)" fill="#F42C7D" d="M240.448,18.684c0,0-44.219,21.479-113.655,21.479
		c-69.436,0-109.783-21.657-109.783-21.657v14c0,0,40.347,21.657,109.783,21.657c69.437,0,113.655-21.479,113.655-21.479V18.684z"/>
	<path clip-path="url(#SVGID_2_)" fill="#FF0D6A" d="M240.448,52.684c0,0-44.219,21.479-113.655,21.479
		c-69.436,0-109.783-21.657-109.783-21.657v14c0,0,40.347,21.657,109.783,21.657c69.437,0,113.655-21.479,113.655-21.479V52.684z"/>
	<path clip-path="url(#SVGID_2_)" fill="#FF0D6A" d="M240.448,30.684c0,0-44.219,21.479-113.655,21.479
		c-69.436,0-109.783-21.657-109.783-21.657v14c0,0,40.347,21.657,109.783,21.657c69.437,0,113.655-21.479,113.655-21.479V30.684z"/>
	<path clip-path="url(#SVGID_2_)" fill="#FF0D6A" d="M240.448,8.684c0,0-44.219,21.479-113.655,21.479
		C57.357,30.162,17.01,8.505,17.01,8.505v14c0,0,40.347,21.657,109.783,21.657c69.437,0,113.655-21.479,113.655-21.479V8.684z"/>
</g>
<path opacity="0.34" fill="#D82174" d="M97.792,34.872L73.203,85.74l34.896,1.619c2.272-25.893,7.052-41.071,13.424-49.887"/>
<g>
	<defs>
		<path id="SVGID_3_" d="M121.56,33.371c6.514-6.328,14.297-7.667,22.58-7.667c-6.396,0-33.341-1.766-48.869,0.271
			C75.593,28.012,60.022,43.302,60.022,126l21.477-9.667l21.66,9.667c0-56.318,7.225-81.367,18.047-92.266
			c0.04,0.019,0.077,0.038,0.117,0.057l-0.09-0.098C121.341,33.584,121.451,33.477,121.56,33.371z"/>
	</defs>
	<clipPath id="SVGID_4_">
		<use xlink:href="#SVGID_3_"  overflow="visible"/>
	</clipPath>
	<g clip-path="url(#SVGID_4_)">
		<path fill="#FF0D6A" d="M122.56,33.371c6.514-6.328,14.297-7.667,22.58-7.667c-6.396,0-33.341-1.766-48.869,0.271
			C76.593,28.012,61.022,43.302,61.022,126l21.569,1.372L104.159,126c0-56.318,7.225-81.367,18.047-92.266
			c0.04,0.019,0.077,0.038,0.117,0.057l-0.09-0.098C122.341,33.584,122.451,33.477,122.56,33.371z"/>
	</g>
	<g clip-path="url(#SVGID_4_)">
		<path fill="#F4277A" d="M109.56,32.871c6.514-6.328,14.297-7.667,22.58-7.667c-6.396,0-33.341-1.766-48.869,0.271
			C63.593,27.512,48.022,42.802,48.022,125.5l21.569,1.372l21.568-1.372c0-56.318,7.225-81.367,18.047-92.266
			c0.04,0.019,0.077,0.038,0.117,0.057l-0.09-0.098C109.341,33.084,109.451,32.977,109.56,32.871z"/>
	</g>
	<g clip-path="url(#SVGID_4_)">
		<path fill="#FF0D6A" d="M98.56,33.371c6.513-6.328,14.296-7.667,22.58-7.667c-6.396,0-33.341-1.766-48.869,0.271
			C52.593,28.012,37.022,43.302,37.022,126l21.569,1.372L80.159,126c0-56.318,7.225-81.367,18.047-92.266
			c0.04,0.019,0.077,0.038,0.117,0.057l-0.089-0.098C98.341,33.584,98.451,33.477,98.56,33.371z"/>
	</g>
	<g clip-path="url(#SVGID_4_)">
		<path fill="#F4277A" d="M88.56,32.871c6.513-6.328,14.296-7.667,22.58-7.667c-6.396,0-33.341-1.766-48.869,0.271
			C42.593,27.512,27.022,42.802,27.022,125.5l21.569,1.372l21.568-1.372c0-56.318,7.225-81.367,18.047-92.266
			c0.04,0.019,0.077,0.038,0.117,0.057l-0.089-0.098C88.341,33.084,88.451,32.977,88.56,32.871z"/>
	</g>
</g>
</svg>
