<?xml version="1.0" encoding="utf-8"?>
<!-- Generator: Adobe Illustrator 15.0.0, SVG Export Plug-In . SVG Version: 6.00 Build 0)  -->
<!DOCTYPE svg PUBLIC "-//W3C//DTD SVG 1.1//EN" "http://www.w3.org/Graphics/SVG/1.1/DTD/svg11.dtd">
<svg version="1.1" id="Layer_1" xmlns="http://www.w3.org/2000/svg" xmlns:xlink="http://www.w3.org/1999/xlink" x="0px" y="0px"
	 width="260.426px" height="178.491px" viewBox="0 0 260.426 178.491" enable-background="new 0 0 260.426 178.491"
	 xml:space="preserve">
<path d="M926.562-1140.026c-0.873,1.804-1.907,3.621-3.1,5.449c-1.189,1.828-2.479,3.614-3.859,5.358
	c-1.382,1.744-2.814,3.397-4.295,4.96c-1.48,1.562-2.918,2.961-4.309,4.193c-1.396,1.232-2.705,2.264-3.936,3.097
	c-1.229,0.833-2.296,1.384-3.2,1.651c-1.47,0.436-2.866,0.604-4.19,0.504c-1.322-0.1-2.54-0.534-3.66-1.301
	c-1.123-0.768-2.136-1.885-3.039-3.35c-0.904-1.462-1.701-3.359-2.389-5.683c-0.27-0.904-0.553-1.897-0.85-2.979
	c-0.297-1.082-0.596-2.21-0.897-3.386c-0.304-1.175-0.607-2.359-0.915-3.557c-0.306-1.196-0.605-2.36-0.896-3.492
	c-0.636-2.622-1.263-5.29-1.88-8.011c0.684-1.654,1.42-3.5,2.201-5.534c0.785-2.035,1.551-4.1,2.295-6.193l24.82-7.357
	c1.031-0.306,1.832-1.091,2.393-2.358c0.561-1.266,0.607-2.703,0.13-4.311c-0.411-1.389-0.946-2.481-1.605-3.278
	c-0.653-0.795-1.421-1.089-2.294-0.882c-0.748,0.175-1.686,0.405-2.818,0.694c-1.131,0.29-2.35,0.603-3.65,0.942
	c-1.307,0.341-2.651,0.696-4.039,1.07c-1.389,0.374-2.68,0.719-3.873,1.035c-1.193,0.316-2.256,0.567-3.186,0.746
	c-0.931,0.183-1.568,0.401-1.916,0.659c0.84-2.861,1.595-5.718,2.271-8.575c0.674-2.855,1.178-5.627,1.506-8.312
	c0.327-2.685,0.45-5.264,0.375-7.738c-0.074-2.473-0.42-4.741-1.031-6.806c-0.738-2.495-1.744-4.804-3.004-6.934
	c-1.266-2.127-2.691-3.891-4.274-5.293c-1.589-1.4-3.3-2.39-5.134-2.969c-1.835-0.58-3.676-0.595-5.53-0.046
	c-2.88,0.853-5.251,2.945-7.114,6.275c-1.865,3.333-3.274,7.439-4.234,12.321c-0.963,4.884-1.527,10.304-1.704,16.263
	c-0.171,5.957,0.021,12.005,0.576,18.145c-0.404,0.213-1.188,0.479-2.338,0.797c-1.155,0.318-2.462,0.671-3.922,1.057
	c-1.466,0.388-2.98,0.825-4.554,1.314c-1.574,0.492-2.994,1.02-4.258,1.589c-1.27,0.571-2.271,1.159-3.01,1.767
	c-0.736,0.607-1.005,1.249-0.803,1.928c0.128,0.432,0.299,0.94,0.521,1.528c0.223,0.585,0.543,1.115,0.966,1.59
	c0.427,0.473,0.977,0.829,1.661,1.07c0.684,0.241,1.568,0.278,2.648,0.113c2.426-0.404,4.284-0.696,5.575-0.87
	c1.294-0.175,2.364-0.297,3.216-0.368c0.85-0.07,1.656-0.126,2.424-0.17c0.764-0.044,1.824-0.164,3.182-0.357
	c0.471,2.998,1.033,5.992,1.689,8.981c0.65,2.992,1.361,5.777,2.127,8.359c1.262,4.26,2.626,8.155,4.068,11.761
	c-1.279,3.463-3.049,7.936-4.381,10.67c-0.611,1.248-1.289,2.482-2.028,3.701c-0.739,1.218-1.509,2.338-2.304,3.363
	c-0.796,1.025-1.623,1.908-2.482,2.649c-0.855,0.741-1.736,1.246-2.641,1.513c-1.203,0.358-2.155,0.034-2.85-0.969
	c-0.697-1.003-1.336-2.492-1.918-4.464c-0.688-2.308-1.173-5.25-1.461-8.83c-0.289-3.58-0.543-6.768-0.766-9.563
	c-0.227-2.796-0.495-5.512-0.808-8.147c-0.314-2.636-0.776-4.981-1.386-7.039c-0.4-1.347-0.831-2.379-1.302-3.091
	c-0.469-0.713-0.983-1.222-1.544-1.53c-0.562-0.307-1.143-0.442-1.742-0.407c-0.604,0.038-1.23,0.152-1.879,0.344
	c-0.477,0.141-0.961,0.297-1.451,0.466c-0.491,0.169-0.977,0.325-1.45,0.464c-0.563,0.167-1.128,0.299-1.687,0.394
	c-0.562,0.097-1.133,0.112-1.717,0.048c-0.584-0.063-1.119-0.284-1.607-0.66c-0.49-0.374-0.992-0.758-1.509-1.149
	c-0.515-0.391-1.113-0.7-1.79-0.924c-0.68-0.226-1.519-0.189-2.515,0.105c-2.987,0.885-5.734,2.389-8.235,4.507
	c-2.506,2.118-4.74,4.634-6.703,7.55c-1.961,2.915-3.609,6.133-4.946,9.654c-1.333,3.522-2.369,7.538-3.104,12.049
	c-0.734,4.511-1.055,8.595-0.961,12.252c0.098,3.658,0.621,7.096,1.573,10.312c0.849,2.866,2.065,5.304,3.643,7.317
	c1.579,2.012,3.358,3.587,5.334,4.725c1.978,1.14,4.069,1.841,6.28,2.107c2.208,0.267,4.346,0.092,6.412-0.519
	c1.953-0.579,3.81-1.476,5.574-2.694c1.764-1.218,3.394-2.594,4.898-4.128c1.504-1.535,2.835-3.146,3.985-4.832
	c1.152-1.684,2.071-3.278,2.761-4.78c2.412,3.04,4.839,5.183,7.285,6.427c2.445,1.245,5.099,1.443,7.958,0.595
	c2.366-0.701,4.562-1.99,6.579-3.866c2.02-1.879,3.81-3.972,5.373-6.282c1.562-2.309,2.897-4.646,3.998-7.009
	c0.879-1.886,1.737-4.823,2.344-6.793c1.109,1.694,2.244,3.261,3.418,4.628c2.772,3.229,5.693,5.465,8.764,6.708
	c3.071,1.245,6.232,1.385,9.485,0.42c1.595-0.473,3.284-1.301,5.067-2.484c1.782-1.185,3.756-2.752,5.92-4.705
	c2.162-1.951,4.595-4.312,7.291-7.078c2.697-2.766,9.613-12.975,11.421-17.047c0,0,1.909-4.041-1.421-7.37
	S926.562-1140.026,926.562-1140.026z M838.865-1101.373c-0.367,2.23-0.996,4.232-1.879,6c-0.884,1.771-2.123,2.893-3.717,3.365
	c-0.992,0.294-1.885,0.281-2.684-0.037c-0.797-0.319-1.512-0.832-2.145-1.538c-0.632-0.707-1.178-1.558-1.637-2.557
	c-0.46-0.999-0.854-2.053-1.184-3.163c-0.557-1.877-0.902-3.956-1.041-6.237c-0.139-2.279-0.02-5.005,0.351-8.179
	c0.372-3.174,0.896-5.906,1.575-8.196c0.68-2.29,1.539-4.401,2.582-6.335c1.043-1.933,2.271-3.585,3.691-4.958
	c1.418-1.373,3.011-2.32,4.775-2.844l1.407,22.417c0.237,1.438,0.374,3.284,0.409,5.536
	C839.406-1105.845,839.236-1103.604,838.865-1101.373z M882.717-1169.054c-0.708,0.141-1.396,0.284-2.059,0.428
	s-1.324,0.279-1.992,0.407c-0.249-3.69-0.453-7.51-0.612-11.462c-0.16-3.95-0.165-7.61-0.013-10.979
	c0.154-3.369,0.515-6.206,1.075-8.511c0.563-2.305,1.405-3.625,2.53-3.957c0.818-0.243,1.508-0.261,2.062-0.053
	c0.557,0.209,1.019,0.539,1.386,0.989c0.37,0.45,0.671,0.955,0.909,1.514c0.234,0.561,0.424,1.076,0.562,1.546
	c0.404,1.361,0.553,3.213,0.449,5.557c-0.104,2.346-0.357,4.906-0.755,7.686c-0.397,2.777-0.927,5.64-1.579,8.586
	C884.025-1174.357,883.373-1171.608,882.717-1169.054z"/>
<g>
	<path d="M705.963-1154.035c7.742-3.676,14.936-6.306,21.57-7.895c6.636-1.588,12.758-2.33,18.371-2.217
		c5.609,0.11,10.725,0.99,15.349,2.637c4.624,1.652,8.788,3.865,12.491,6.643c3.707,2.778,6.98,6.034,9.831,9.767
		c2.849,3.732,5.301,7.769,7.36,12.106c2.84,5.983,5.248,12.776,7.229,20.384c1.981,7.606,3.075,14.88,3.284,21.816
		c0.207,6.936-0.336,13.794-1.63,20.569c-1.291,6.779-3.425,13.167-6.395,19.17s-6.792,11.436-11.466,16.299
		c-4.675,4.866-10.312,8.865-16.914,11.997c-2.203,1.047-4.533,1.944-6.99,2.699c-2.459,0.748-4.905,1.346-7.334,1.791
		c-2.435,0.442-4.781,0.757-7.047,0.946c-2.268,0.187-4.312,0.238-6.133,0.152c-0.699,0.099-1.289,0.097-1.764-0.002
		c-0.48-0.099-0.898-0.286-1.259-0.561c-0.36-0.273-0.69-0.662-0.989-1.172c-0.297-0.511-0.643-1.177-1.034-2
		c-3.726-7.851-7.345-15.987-10.855-24.405c-3.509-8.42-6.716-17.258-9.614-26.517c-2.904-9.26-4.782-17.758-5.641-25.496
		c-0.857-7.738-0.723-15.32,0.403-22.751c0.284-1.817,2.985-3.939,8.093-6.363c4.029-1.912,7.617-1.817,10.76,0.279
		c-0.787,3.968-1.064,8.097-0.831,12.388c0.237,4.29,0.682,8.407,1.337,12.355c0.651,3.948,1.623,8.134,2.912,12.562
		c2.488,8.55,3.779,12.861,3.872,12.932c0.188,0.031,1.795,4.826,4.825,14.392c1.008,3.348,1.932,6.24,2.77,8.68
		c0.838,2.441,1.613,4.562,2.326,6.368c0.71,1.804,1.46,3.535,2.245,5.191c0.829,1.749,1.584,3.185,2.264,4.312
		c0.677,1.126,1.412,1.938,2.199,2.433c0.788,0.495,1.716,0.675,2.785,0.545c1.071-0.13,2.389-0.567,3.954-1.311
		c4.738-2.248,8.799-5.321,12.178-9.214c3.383-3.891,6.129-8.264,8.238-13.119c2.109-4.852,3.611-10.039,4.506-15.56
		c0.894-5.523,1.053-11.491,0.477-17.91c-0.577-6.416-1.461-12.28-2.646-17.599c-1.186-5.314-2.836-10.193-4.945-14.639
		c-2.602-5.483-5.831-9.96-9.686-13.433c-3.854-3.471-8.116-5.937-12.788-7.399c-4.675-1.458-9.661-1.903-14.962-1.327
		c-5.303,0.577-10.682,2.158-16.133,4.745c-3.98,1.89-7.812,4.001-11.492,6.329c-3.68,2.332-6.951,4.786-9.814,7.371
		c-2.867,2.582-5.196,5.248-6.996,7.996c-1.797,2.751-2.828,5.497-3.09,8.244c-0.906,7.019-1.777,12.516-2.613,16.5
		c-0.836,3.979-2.01,6.331-3.528,7.05c-2.081,0.988-4.259-0.906-6.528-5.69c-2.199-4.639-3.572-9.091-4.12-13.356
		c-0.546-4.267-0.42-8.341,0.376-12.228c0.792-3.887,2.191-7.541,4.197-10.957c2.004-3.414,4.461-6.61,7.369-9.588
		c2.908-2.976,6.207-5.714,9.892-8.218C697.873-1149.816,701.797-1152.058,705.963-1154.035z"/>
</g>
<g>
	<path d="M946.093-994.986c-0.611,1.597-1.302,3.183-2.067,4.756c-0.77,1.574-1.588,3.031-2.446,4.375
		c-0.857,1.346-1.772,2.519-2.74,3.521s-1.984,1.72-3.062,2.149c-1.438,0.573-2.635,0.283-3.599-0.867
		c-0.963-1.15-1.913-2.901-2.85-5.25c-1.096-2.748-2.02-6.296-2.776-10.646c-0.753-4.349-1.421-8.223-2.007-11.619
		c-0.589-3.396-1.223-6.693-1.9-9.883c-0.682-3.192-1.504-6.012-2.485-8.462c-0.638-1.605-1.284-2.817-1.94-3.638
		c-0.65-0.82-1.337-1.386-2.059-1.7c-0.721-0.312-1.447-0.411-2.182-0.301c-0.73,0.112-1.482,0.323-2.257,0.631
		c-0.567,0.227-1.144,0.471-1.725,0.732c-0.585,0.262-1.161,0.506-1.725,0.732c-0.673,0.266-1.347,0.491-2.019,0.668
		c-0.678,0.183-1.377,0.264-2.1,0.251c-0.721-0.013-1.402-0.22-2.041-0.627c-0.643-0.402-1.297-0.816-1.975-1.238
		c-0.674-0.42-1.439-0.73-2.297-0.931c-0.854-0.198-1.879-0.062-3.062,0.412c-3.559,1.418-6.752,3.568-9.581,6.44
		s-5.278,6.205-7.355,9.991c-2.077,3.788-3.735,7.912-4.972,12.371c-1.24,4.463-2.059,9.493-2.454,15.098
		c-0.392,5.605-0.33,10.64,0.198,15.105c0.255,2.168,0.633,4.256,1.123,6.274c-1.576,2.363-3.24,4.694-5.078,6.958
		c-2.508,3.093-5.227,5.92-8.156,8.482s-5.936,4.456-9.01,5.682c-0.977,0.39-1.932,0.655-2.859,0.792
		c-0.929,0.139-1.879,0.112-2.852-0.084c-0.972-0.191-2.01-0.592-3.114-1.196c-1.104-0.605-2.313-1.43-3.625-2.477
		c3.99-2.983,7.466-6.317,10.435-10c2.965-3.68,5.289-7.452,6.965-11.315c1.676-3.862,2.779-8.138,3.326-12.825
		c0.541-4.688,0.193-8.588-1.048-11.696c-1.161-2.916-2.728-5.35-4.694-7.294c-1.966-1.944-4.188-3.39-6.674-4.326
		c-2.484-0.937-5.143-1.375-7.975-1.315c-2.83,0.059-5.68,0.664-8.557,1.808c-3.516,1.403-6.468,3.3-8.856,5.688
		c-2.384,2.389-4.319,5.093-5.803,8.119c-1.482,3.022-2.542,6.26-3.177,9.707c-0.633,3.449-0.919,6.92-0.857,10.413
		c0.062,3.225,0.312,6.835,0.736,10.791c-7.604-1.746-12.834-4.812-16.42-8.283c-0.477-1.99-0.924-4.001-1.311-6.055
		c-1.315-7.003-2.887-13.86-4.712-20.573c-1.825-6.714-3.911-12.681-6.26-17.901c-0.849-1.883-1.804-3.315-2.86-4.298
		c-1.055-0.981-2.221-1.617-3.51-1.914c-1.285-0.294-2.648-0.297-4.092-0.002c-1.443,0.292-2.961,0.798-4.558,1.518
		c-2.041,0.919-3.977,1.957-5.798,3.113c-1.553,0.989-2.807,2.151-3.867,3.428c-13.459,4.795-1.293,27.149,6.48,39.16
		c0.84,2.693,1.76,5.638,2.775,8.887c3.73,11.943,5.596,17.91,5.596,17.906c-0.004-0.007,1.355,5.63,4.074,16.906
		c2.719,11.277,4.527,20.602,5.416,27.971c0.889,7.371,1.17,14.079,0.831,20.129c-0.335,6.051-1.377,11.237-3.124,15.556
		c-1.75,4.318-4.496,7.319-8.234,9.003c-2.165,0.975-4.334,0.999-6.512,0.07c-2.178-0.93-4.391-2.686-6.647-5.272
		c-2.257-2.589-4.531-5.925-6.827-10.014c-2.297-4.086-4.637-8.773-7.018-14.061c-2.326-5.167-4.645-10.943-6.946-17.322
		c-2.31-6.38-4.518-12.892-6.625-19.535c-2.107-6.646-4.087-13.154-5.931-19.53c-1.848-6.375-3.467-12.09-4.861-17.151
		c-1.395-5.059-2.538-9.205-3.427-12.44c-0.893-3.237-1.43-5.062-1.614-5.475c-0.559-1.233-1.236-2.27-2.037-3.109
		c-0.805-0.84-1.79-1.42-2.956-1.741c-1.171-0.321-2.565-0.365-4.192-0.129c-1.623,0.236-3.555,0.861-5.794,1.868
		c-2.371,1.067-4.333,2.274-5.899,3.625c-1.562,1.351-2.728,2.989-3.498,4.918c-0.77,1.926-1.147,4.213-1.13,6.862
		c0.018,2.653,0.413,5.78,1.183,9.383c5.346,22.095,9.16,42.255,11.43,60.49c0.634,5.175,1.157,10.346,1.575,15.51
		c0.413,5.164,0.634,10.169,0.659,15.008c0.022,4.838-0.158,9.427-0.536,13.767c-0.383,4.338-1.064,8.239-2.05,11.697
		c-0.99,3.464-2.287,6.421-3.906,8.875c-1.619,2.45-3.635,4.219-6.041,5.303c-2.41,1.085-4.844,1.247-7.307,0.487
		c-2.459-0.758-4.888-2.229-7.285-4.415c-2.398-2.189-4.703-4.994-6.912-8.414c-2.213-3.421-4.271-7.25-6.181-11.488
		c-2.336-5.193-4.382-11.038-6.142-17.531c-1.76-6.497-3.316-13.209-4.667-20.139c-1.354-6.928-2.552-13.82-3.59-20.676
		c-1.038-6.858-1.989-13.215-2.86-19.068c-0.871-5.853-1.711-10.985-2.529-15.392c-0.818-4.408-1.685-7.624-2.6-9.654
		c-0.805-1.788-1.633-3.121-2.485-3.994c-0.854-0.871-1.772-1.428-2.763-1.665s-2.055-0.208-3.189,0.09
		c-1.14,0.297-2.358,0.737-3.647,1.317c-1.588,0.715-3.119,1.511-4.593,2.387c-1.479,0.879-2.775,2.116-3.893,3.714
		c-1.118,1.6-1.984,3.684-2.592,6.251c-0.607,2.571-0.88,5.89-0.814,9.96c0.282,7.219,0.906,14.494,1.879,21.827
		c0.973,7.335,2.274,14.592,3.916,21.763c1.641,7.172,3.58,14.194,5.824,21.06c2.244,6.868,4.769,13.414,7.571,19.64
		c4.575,10.164,9.379,18.684,14.421,25.562c5.041,6.881,10.03,12.244,14.979,16.093c4.945,3.851,9.758,6.256,14.435,7.224
		c4.673,0.969,8.948,0.581,12.824-1.163c6.753-3.041,12.384-6.974,16.894-11.79c4.504-4.82,7.686-10.933,9.546-18.337
		c1.86-7.408,2.358-16.339,1.5-26.798c-0.857-10.458-3.242-22.857-7.157-37.202c0.695,2.017,1.451,4.326,2.27,6.927
		c0.814,2.599,1.861,5.305,3.128,8.125c3.467,7.696,7.286,14.7,11.465,21.013c4.179,6.316,8.622,11.449,13.325,15.409
		c4.703,3.957,9.656,6.527,14.874,7.714c5.214,1.184,10.599,0.525,16.159-1.977c4.391-1.977,8.301-4.66,11.736-8.045
		c3.436-3.391,6.406-7.347,8.913-11.867c2.503-4.521,4.536-9.542,6.098-15.059c1.562-5.519,2.679-11.44,3.356-17.755
		c0,0,0.887-19.21-0.686-29.647c-1.118-7.396-1.536-9.23-1.994-15.824c-0.287-4.136-0.998-8.196-2.036-12.196
		c5.046,2.007,9.942,2.913,14.372,3.174c1.396,2.742,3.012,5.303,4.883,7.646c2.768,3.463,5.944,6.214,9.534,8.262
		c3.589,2.046,7.531,3.24,11.829,3.581c4.299,0.346,8.838-0.439,13.625-2.347c3.08-1.228,5.979-2.794,8.688-4.705
		c2.719-1.907,5.235-4.012,7.558-6.312c2.318-2.302,4.439-4.723,6.371-7.266c1.053-1.392,2.045-2.77,2.99-4.138
		c1.664,1.462,3.428,2.63,5.297,3.491c2.548,1.172,5.188,1.797,7.924,1.876c2.732,0.079,5.332-0.374,7.791-1.355
		c2.327-0.926,4.5-2.232,6.52-3.922c2.023-1.687,3.867-3.555,5.539-5.6c1.667-2.048,3.114-4.169,4.338-6.361
		c1.219-2.191,2.168-4.246,2.842-6.161c3.295,3.451,6.502,5.802,9.639,7.052c3.132,1.249,6.4,1.196,9.806-0.163
		c2.82-1.124,5.358-2.945,7.624-5.471c2.257-2.522,4.215-5.285,5.873-8.288c1.654-3.002,3.022-6.012,4.109-9.029
		c1.082-3.014,1.883-5.585,2.401-7.717L950-1007.319C948.812-1002.843,947.51-998.732,946.093-994.986z M830.26-960.331
		c-0.439-1.104-0.914-2.45-1.434-4.048c-0.515-1.594-0.827-3.763-0.938-6.506c-0.114-2.745-0.172-5.06-0.176-6.946
		c-0.009-1.886,0.264-3.676,0.81-5.376c0.546-1.698,1.442-3.26,2.692-4.689c1.245-1.426,2.979-2.583,5.191-3.465
		c1.236-0.493,2.568-0.181,3.994,0.935c1.43,1.115,2.596,2.801,3.493,5.055c0.638,1.604,0.55,3.995-0.272,7.169
		s-1.883,5.859-3.182,8.063c-1.302,2.202-2.859,4.204-4.672,6.003C833.951-962.336,832.112-961.07,830.26-960.331z M908.053-975.614
		c-0.203,2.773-0.748,5.295-1.633,7.558c-0.879,2.266-2.27,3.777-4.17,4.536c-1.18,0.471-2.279,0.555-3.291,0.255
		c-1.012-0.301-1.944-0.849-2.798-1.643c-0.849-0.794-1.614-1.777-2.288-2.945c-0.672-1.167-1.266-2.41-1.795-3.726
		c0.066-0.168,0.142-0.327,0.207-0.496l-0.434-0.191c-0.768-2.069-1.369-4.331-1.752-6.845c-0.428-2.774-0.586-6.126-0.488-10.053
		c0.096-3.926,0.431-7.329,1.007-10.208c0.576-2.88,1.395-5.562,2.45-8.044c1.061-2.483,2.385-4.646,3.969-6.482
		c1.584-1.839,3.422-3.176,5.525-4.014l4.232,27.28c0.453,1.735,0.826,3.977,1.121,6.73S908.255-978.385,908.053-975.614z"/>
	<path d="M1225.83-1124.937c-6.784-6.785-8.39-4.612-8.39-4.612c-1.553,2.815-3.233,5.449-5.05,7.895
		c-1.54,2.099-3.335,4.153-5.39,6.159c-2.05,2.006-4.228,3.469-6.537,4.388c-0.818,0.326-1.663,0.484-2.529,0.473
		c-0.867-0.011-1.742-0.271-2.627-0.778c-0.884-0.508-1.755-1.307-2.604-2.394c-0.849-1.086-1.641-2.554-2.375-4.399
		c-0.432-1.076-0.841-2.475-1.224-4.19c-0.392-1.718-0.801-3.942-1.24-6.68c-0.436-2.736-0.84-4.936-1.205-6.604
		c-0.37-1.663-0.727-2.932-1.074-3.805c-0.448-1.126-1.056-2.057-1.825-2.792c-0.766-0.732-1.619-1.269-2.556-1.61
		c-0.938-0.338-1.937-0.49-2.992-0.455c-1.051,0.035-2.067,0.246-3.04,0.633c-2.819,1.124-5.006,2.873-6.555,5.242
		c-1.553,2.372-2.731,4.996-3.546,7.875c-0.813,2.877-1.324,6.289-1.53,10.232c-0.212,3.946-0.418,7.149-0.63,9.608l-0.845,0.336
		c-1.144-2.574-2.283-5.653-3.418-9.241s-2.076-6.331-2.833-8.227c-0.634-1.588-1.175-2.831-1.619-3.724
		c-0.444-0.891-0.941-1.507-1.495-1.852c-0.555-0.345-1.228-0.431-2.02-0.264c-0.797,0.169-1.861,0.519-3.189,1.049
		c-1.184,0.471-2.143,0.931-2.886,1.373c-0.744,0.447-1.307,0.968-1.694,1.566c-0.383,0.598-0.65,1.313-0.792,2.145
		c-0.145,0.829-0.197,1.89-0.158,3.181c0.009,1.958,0.198,4.375,0.576,7.256c0.374,2.879,0.885,6.463,1.527,10.752
		c0.638,4.29,1.351,8.282,2.142,11.977c0.792,3.695,1.633,7.296,2.525,10.8c0.128,0.5,0.26,0.964,0.388,1.456
		c-0.711,1.272-1.474,2.585-2.323,3.959c-2.02,3.275-4.285,6.458-6.797,9.549c-2.508,3.092-5.227,5.919-8.156,8.481
		c-2.93,2.563-5.935,4.457-9.01,5.682c-0.977,0.39-1.932,0.656-2.859,0.792c-0.929,0.139-1.879,0.112-2.851-0.083
		c-0.973-0.191-2.011-0.589-3.115-1.197c-1.104-0.605-2.313-1.43-3.625-2.477c3.99-2.983,7.466-6.317,10.436-10
		c2.965-3.68,5.288-7.453,6.964-11.315c1.676-3.863,2.78-8.137,3.326-12.826c0.541-4.688,0.193-8.587-1.047-11.695
		c-1.162-2.917-2.728-5.35-4.694-7.294c-1.967-1.944-4.188-3.39-6.674-4.327s-5.143-1.375-7.976-1.315
		c-2.829,0.06-5.68,0.665-8.557,1.808c-3.516,1.404-6.467,3.3-8.856,5.688c-2.384,2.389-4.319,5.094-5.802,8.119
		c-1.483,3.022-2.543,6.26-3.177,9.709c-0.634,3.447-0.919,6.918-0.857,10.411c0.065,3.493,0.343,7.413,0.836,11.759
		c0.492,4.351,1.302,7.941,2.433,10.772c0.072,0.178,0.158,0.345,0.23,0.522c-0.943,2.591-1.951,5.068-3.046,7.396
		c-0.727,1.612-1.54,3.211-2.451,4.804c-0.91,1.592-1.892,3.08-2.942,4.461c-1.056,1.379-2.169,2.606-3.349,3.673
		c-1.179,1.069-2.38,1.85-3.611,2.34c-0.973,0.387-2.02,0.079-3.132-0.93c-1.118-1.008-2.09-2.559-2.922-4.648
		c-1.521-3.812-2.507-7.657-2.951-11.535c-0.449-3.878-0.273-8.761,0.527-14.649c0.801-5.891,1.017-10.714,0.646-14.474
		c-0.369-3.755-1.258-7.411-2.675-10.963c-0.708-1.775-1.518-3.135-2.428-4.072c-0.906-0.939-1.835-1.586-2.776-1.938
		c-0.941-0.35-1.843-0.488-2.705-0.418c-0.862,0.073-1.602,0.229-2.218,0.475c-2.459,0.981-4.716,2.963-6.762,5.946
		c-2.05,2.985-4.417,7.481-7.096,13.493c-2.684,6.014-4.681,11.172-5.992,15.481c-1.315,4.309-2.454,8.301-3.423,11.981
		l-1.971-0.475c0.44-3.955,0.946-8.537,1.514-13.746c0.567-5.204,1.064-10.699,1.496-16.482c0.427-5.78,0.738-11.698,0.941-17.749
		c0.202-6.051,0.185-11.939-0.049-17.667c-0.233-5.728-0.743-11.134-1.522-16.224c-0.782-5.09-1.936-9.549-3.466-13.383
		c-1.025-2.578-2.16-4.828-3.405-6.755c-1.241-1.923-2.688-3.423-4.333-4.5c-1.646-1.074-3.52-1.674-5.614-1.793
		c-2.098-0.121-4.531,0.372-7.298,1.474c-5.341,2.129-9.468,5.501-12.389,10.116c-2.917,4.615-4.896,10.059-5.935,16.333
		c-1.038,6.275-1.298,13.163-0.774,20.659c0.52,7.499,1.707,15.14,3.568,22.927c0.97,4.072,1.951,8.186,2.928,12.28
		c-0.284,0-0.57,0.035-0.865,0.134c-0.893,0.297-2.015,0.684-3.369,1.166c-1.351,0.479-2.807,1-4.369,1.562
		c-1.557,0.563-3.163,1.15-4.821,1.762c-1.654,0.613-3.198,1.181-4.624,1.702c-1.425,0.521-2.696,0.946-3.813,1.27
		c-1.118,0.325-1.879,0.667-2.274,1.021c0.708-3.594,1.315-7.178,1.821-10.75c0.506-3.572,0.81-7.021,0.91-10.345
		c0.102-3.326-0.03-6.495-0.404-9.516c-0.37-3.02-1.047-5.756-2.023-8.215c-1.188-2.97-2.671-5.686-4.457-8.15
		c-1.781-2.463-3.727-4.463-5.824-6c-2.099-1.536-4.303-2.556-6.612-3.06c-2.314-0.504-4.571-0.317-6.775,0.563
		c-3.431,1.366-6.102,4.192-8.006,8.479c-1.91,4.285-3.177,9.472-3.806,15.556c-0.629,6.086-0.717,12.785-0.26,20.096
		c0.453,7.314,1.364,14.696,2.732,22.148c-0.471,0.308-1.399,0.719-2.776,1.238c-1.373,0.52-2.934,1.098-4.681,1.733
		c-1.747,0.638-3.555,1.344-5.425,2.118c-1.873,0.779-3.55,1.584-5.037,2.424c-1.486,0.84-2.648,1.672-3.484,2.497
		c-0.831,0.825-1.091,1.643-0.77,2.45c0.207,0.515,0.475,1.118,0.814,1.811c0.334,0.693,0.787,1.307,1.359,1.839
		c0.571,0.532,1.289,0.908,2.155,1.126c0.862,0.218,1.948,0.163,3.255-0.158c2.922-0.768,5.165-1.333,6.727-1.691
		c1.562-0.356,2.859-0.627,3.894-0.808c1.034-0.18,2.015-0.341,2.947-0.479c0.929-0.141,2.213-0.407,3.854-0.794
		c0.91,3.616,1.936,7.219,3.07,10.805c1.135,3.588,2.318,6.918,3.546,9.995c3.146,7.893,6.472,14.795,9.982,20.701
		c3.506,5.91,7.14,10.686,10.893,14.326c3.757,3.643,7.584,6.053,11.481,7.229c3.898,1.18,7.782,0.997,11.658-0.547
		c1.896-0.757,3.871-1.96,5.922-3.61c2.05-1.647,4.289-3.787,6.718-6.42c2.433-2.634,5.143-5.794,8.134-9.483
		c1.57-1.932,3.251-4.031,5.037-6.278c0.464,1.051,0.902,2.138,1.399,3.145c0.919,1.862,1.939,3.453,3.058,4.764
		c1.117,1.312,2.345,2.23,3.682,2.757c1.338,0.527,2.855,0.453,4.545-0.223c1.28-0.51,2.226-1.194,2.837-2.05
		c0.607-0.855,1.052-1.94,1.333-3.251c0.277-1.312,0.44-2.959,0.479-4.945c0.04-1.984,0.167-4.34,0.388-7.074
		c0.413-5.51,1.157-10.992,2.222-16.44c1.064-5.449,2.213-10.431,3.444-14.944c1.228-4.518,2.429-8.33,3.594-11.438
		c1.166-3.11,2.072-5.116,2.724-6.022l1.707-0.409c-0.102,0.22-0.22,0.928-0.361,2.125c-0.141,1.194-0.259,2.714-0.36,4.556
		c-0.102,1.841-0.176,3.909-0.216,6.205c-0.044,2.298,0.014,4.615,0.172,6.951c0.163,2.338,0.422,4.619,0.783,6.845
		c0.36,2.226,0.875,4.166,1.535,5.823c0.938,2.347,2.266,4.701,4.003,7.067c1.733,2.367,3.723,4.388,5.975,6.066
		c2.248,1.678,4.725,2.815,7.422,3.41c2.701,0.596,5.49,0.316,8.376-0.834c1.848-0.737,3.669-1.797,5.46-3.183
		c1.795-1.384,3.527-2.923,5.195-4.624c1.672-1.698,3.277-3.522,4.812-5.475c1.54-1.951,2.943-3.838,4.21-5.655
		c1.263-1.814,2.402-3.508,3.41-5.081c0.831-1.305,1.518-2.381,2.106-3.322c1.654,1.458,3.412,2.733,5.288,3.803
		c3.59,2.046,7.532,3.24,11.83,3.581c4.298,0.346,8.838-0.438,13.624-2.347c3.08-1.228,5.979-2.794,8.693-4.705
		c2.714-1.907,5.23-4.012,7.554-6.313c2.318-2.301,4.438-4.723,6.37-7.266c1.764-2.325,3.358-4.616,4.826-6.878
		c0.343,0.704,0.684,1.409,1.051,2.083c0.999,1.833,2.143,3.363,3.44,4.602c1.294,1.236,2.763,2.048,4.399,2.433
		c1.641,0.385,3.511,0.161,5.613-0.677c0.92-0.368,1.703-0.871,2.336-1.511c0.638-0.64,1.122-1.502,1.465-2.589
		c0.339-1.084,0.568-2.411,0.687-3.972c0.119-1.562,0.141-3.487,0.062-5.772l-1.535-43.854l1.231-0.491
		c1.698,3.066,3.507,6.042,5.429,8.928c1.927,2.888,4.087,5.323,6.48,7.307c2.397,1.986,5.086,3.291,8.068,3.913
		c2.979,0.627,6.392,0.172,10.237-1.361c2.151-0.86,4.14-2.021,5.961-3.491c1.816-1.467,3.502-3.06,5.046-4.775
		c1.544-1.713,2.947-3.447,4.21-5.198s2.385-3.326,3.37-4.729C1223.459-1111.096,1230.354-1120.414,1225.83-1124.937z
		 M956.599-1084.377c-0.176,3.445-0.497,7.006-0.968,10.688c-0.476,3.68-0.968,7.118-1.482,10.316
		c-0.854,0.255-1.677,0.506-2.473,0.754c-0.792,0.25-1.593,0.493-2.394,0.724c-0.717-4.489-1.395-9.146-2.032-13.963
		c-0.643-4.817-1.056-9.295-1.245-13.439c-0.188-4.14-0.065-7.653,0.365-10.537c0.427-2.884,1.312-4.595,2.648-5.127
		c0.977-0.389,1.821-0.488,2.521-0.297c0.709,0.194,1.307,0.546,1.809,1.056c0.501,0.51,0.928,1.093,1.28,1.753
		c0.352,0.658,0.643,1.267,0.862,1.828c0.646,1.621,1.038,3.872,1.17,6.753C956.797-1090.987,956.774-1087.824,956.599-1084.377z
		 M1003.882-1133.609c0.88-5.398,1.984-8.363,3.317-8.896c1.096-0.436,2.42,1.296,3.973,5.191c1.021,2.561,1.922,6.806,2.705,12.729
		c0.788,5.926,1.228,13.411,1.324,22.46c-0.004,2.675-0.057,5.948-0.149,9.819c-0.097,3.869-0.198,7.976-0.308,12.327
		c-0.11,4.351-0.233,8.752-0.365,13.2s-0.242,8.563-0.344,12.345c-1.729-6.067-3.242-12.362-4.54-18.895
		c-0.659-2.732-1.359-5.64-2.098-8.722c-0.739-3.084-1.496-6.218-2.262-9.406c-0.766-3.189-1.381-6.442-1.843-9.762
		s-0.818-6.566-1.069-9.731C1002.452-1120.658,1003.007-1128.211,1003.882-1133.609z M999.061-1012.187
		c-1.637,2.079-3.242,3.953-4.809,5.613c-1.566,1.665-3.053,3.077-4.465,4.232c-1.412,1.157-2.657,1.951-3.735,2.38
		c-1.751,0.699-3.44,1.061-5.072,1.087c-1.628,0.023-3.172-0.37-4.628-1.184c-1.461-0.814-2.824-2.067-4.096-3.76
		c-1.268-1.691-2.455-3.921-3.56-6.688c-0.431-1.078-0.889-2.261-1.372-3.553c-0.484-1.291-0.977-2.64-1.479-4.045
		c-0.501-1.403-1.007-2.82-1.518-4.252c-0.511-1.43-1.008-2.82-1.487-4.175c-1.068-3.137-2.138-6.335-3.198-9.595
		c0.651-2.101,1.347-4.443,2.077-7.021c0.729-2.578,1.438-5.191,2.111-7.837l29.559-11.783c0.365-0.146,0.69-0.356,0.994-0.601
		c1.791,7.338,3.779,14.348,5.992,21.006c2.239,6.767,4.412,12.894,6.511,18.417c-0.981,1.755-2.008,3.496-3.123,5.205
		C1002.268-1016.45,1000.701-1014.268,999.061-1012.187z M1103.601-1069.307c-0.44-1.102-0.915-2.451-1.435-4.047
		c-0.515-1.595-0.827-3.764-0.937-6.507c-0.114-2.743-0.172-5.059-0.176-6.944c-0.009-1.888,0.264-3.678,0.809-5.378
		c0.546-1.698,1.443-3.26,2.692-4.689c1.245-1.425,2.979-2.583,5.191-3.464c1.236-0.491,2.569-0.181,3.995,0.935
		c1.43,1.115,2.595,2.8,3.492,5.055c0.639,1.604,0.551,3.995-0.272,7.169c-0.822,3.174-1.883,5.86-3.181,8.063
		c-1.302,2.202-2.855,4.204-4.672,6.003C1107.291-1071.313,1105.452-1070.046,1103.601-1069.307z"/>
</g>
<g>
	<path fill="#FFFFFF" d="M57.324,59.063c0.168-0.649,0.187-1.14,0.056-1.467c-0.184-0.462-0.422-0.808-0.715-1.035
		c-0.292-0.229-0.564-0.292-0.817-0.191c-0.453,0.181-0.807,0.418-1.062,0.709c-0.256,0.293-0.439,0.612-0.551,0.96
		c-0.112,0.349-0.167,0.715-0.166,1.1c0,0.387,0.013,0.861,0.036,1.422c0.022,0.562,0.086,1.006,0.192,1.332
		c0.106,0.327,0.204,0.602,0.293,0.828c0.379-0.151,0.755-0.41,1.127-0.779c0.371-0.367,0.689-0.777,0.956-1.228
		C56.939,60.263,57.156,59.713,57.324,59.063z"/>
	<path fill="#FFFFFF" d="M64.497,20.359c0.137-0.026,0.272-0.054,0.408-0.084c0.136-0.029,0.276-0.059,0.421-0.087
		c0.134-0.522,0.268-1.086,0.402-1.688c0.133-0.604,0.242-1.189,0.323-1.758c0.081-0.568,0.133-1.093,0.154-1.573
		c0.021-0.479-0.009-0.858-0.092-1.137c-0.028-0.097-0.067-0.201-0.116-0.316c-0.048-0.114-0.11-0.218-0.186-0.31
		c-0.075-0.093-0.17-0.16-0.284-0.203c-0.113-0.043-0.255-0.039-0.422,0.011c-0.23,0.068-0.402,0.339-0.518,0.811
		c-0.115,0.472-0.188,1.052-0.22,1.742c-0.031,0.689-0.03,1.438,0.003,2.246S64.446,19.604,64.497,20.359z"/>
	<path fill="#FFFFFF" d="M53.641,34.463c0.067,0.229,0.148,0.443,0.242,0.648c0.094,0.204,0.206,0.378,0.335,0.523
		c0.129,0.144,0.276,0.249,0.439,0.314c0.163,0.064,0.346,0.067,0.549,0.007c0.327-0.096,0.58-0.325,0.761-0.688
		c0.18-0.361,0.309-0.771,0.384-1.228c0.076-0.457,0.111-0.915,0.104-1.377c-0.007-0.46-0.035-0.839-0.084-1.133l-0.288-4.588
		c-0.361,0.107-0.687,0.302-0.978,0.583c-0.291,0.28-0.542,0.618-0.755,1.014s-0.389,0.828-0.529,1.297
		c-0.139,0.469-0.246,1.027-0.322,1.677c-0.076,0.65-0.101,1.208-0.072,1.675C53.456,33.654,53.527,34.079,53.641,34.463z"/>
	<path fill="#FFFFFF" d="M91.615,26.499c-0.317-0.797-0.588-1.151-0.813-1.062c-0.272,0.109-0.499,0.716-0.679,1.821
		c-0.179,1.104-0.292,2.65-0.339,4.638c0.051,0.647,0.124,1.312,0.219,1.992c0.095,0.679,0.221,1.345,0.377,1.997
		c0.157,0.652,0.312,1.294,0.463,1.926c0.151,0.63,0.294,1.226,0.43,1.784c0.266,1.337,0.575,2.626,0.929,3.867
		c0.021-0.773,0.043-1.616,0.07-2.526c0.027-0.91,0.052-1.812,0.075-2.701c0.022-0.891,0.043-1.731,0.063-2.523
		c0.019-0.792,0.03-1.462,0.03-2.01c-0.02-1.852-0.109-3.384-0.271-4.597C92.009,27.893,91.824,27.023,91.615,26.499z"/>
	<path fill="#FFFFFF" d="M138.949,25.632c-1.039-1.039-2.68-2.421-4.924-2.421c-0.866,0-1.706,0.219-2.442,0.618
		c-0.334-0.691-0.778-1.303-1.321-1.821c-0.64-0.611-1.38-1.073-2.214-1.377c-0.767-0.277-1.566-0.404-2.406-0.377
		c-0.771,0.026-1.525,0.184-2.243,0.469c-0.994,0.396-1.877,0.977-2.608,1.707c-0.532-0.048-1.076-0.015-1.623,0.101
		c-0.442,0.094-0.898,0.238-1.43,0.45c-0.478,0.189-0.894,0.392-1.271,0.616c-0.006,0.004-0.012,0.007-0.018,0.011
		c-0.785,0.471-1.426,1.086-1.907,1.829c-0.005,0.007-0.01,0.015-0.015,0.021c-0.156,0.245-0.294,0.706-0.413,0.971
		c-0.656-0.146-1.332-0.015-2.021-0.015c-0.067,0-0.135,0-0.204,0c-1.151,0-2.304,0.059-3.434,0.508
		c-1.325,0.529-2.479,1.177-3.434,2.132c-0.52,0.521-0.983,1.036-1.387,1.644c-0.377-0.246-0.777-0.473-1.198-0.631
		c-0.744-0.275-1.504-0.42-2.283-0.4c-0.065-1.063-0.174-2.101-0.324-3.082c-0.215-1.397-0.55-2.677-0.994-3.789
		c-0.324-0.815-0.703-1.562-1.125-2.215c-0.619-0.959-1.39-1.745-2.299-2.341c-1.048-0.685-2.228-1.069-3.5-1.142
		c-0.133-0.008-0.269-0.013-0.406-0.013c-1.009,0-2.066,0.218-3.146,0.647c-2.048,0.817-3.669,2.151-4.82,3.969
		c-0.671,1.062-1.188,2.247-1.544,3.536c-0.561-0.265-1.144-0.464-1.746-0.595c-0.085-0.019-0.171-0.031-0.257-0.047
		c-0.278-0.531-0.647-1.043-1.121-1.517c-0.577-0.577-1.23-1.028-1.928-1.339c0.365-1.146,0.37-2.375,0.01-3.587
		c-0.27-0.91-0.686-1.708-1.225-2.359c-0.677-0.824-1.56-1.414-2.538-1.717c-0.054-0.752-0.182-1.476-0.384-2.155
		c-0.262-0.884-0.627-1.726-1.093-2.513C71.2,8.549,70.587,7.8,69.884,7.177c-0.83-0.731-1.768-1.266-2.783-1.585
		c-1.284-0.406-2.651-0.419-3.947-0.035c-1.259,0.373-3.024,1.291-4.287,3.547c-0.628,1.121-1.095,2.449-1.389,3.939
		c-0.246,1.25-0.394,2.636-0.438,4.121c-0.004,0.128-0.007,0.257-0.009,0.385c-0.042,0.018-0.082,0.036-0.123,0.055
		c-0.656,0.295-1.211,0.633-1.7,1.035c-0.399,0.328-0.741,0.705-1.021,1.116c-0.184,0.037-0.367,0.082-0.55,0.137
		c-1.252,0.371-2.406,0.998-3.424,1.86c-0.316,0.267-0.619,0.553-0.909,0.855c-0.146-0.21-0.294-0.418-0.448-0.621
		c-0.85-1.112-1.842-2.098-2.948-2.927c-1.14-0.854-2.426-1.542-3.828-2.042c-1.431-0.511-3-0.785-4.659-0.818
		c-1.547-0.032-3.223,0.165-4.976,0.585c-1.678,0.401-3.48,1.057-5.357,1.948c-1.068,0.507-2.094,1.092-3.05,1.741
		c-1.018,0.691-1.946,1.464-2.763,2.3c-0.864,0.886-1.609,1.855-2.214,2.885c-0.678,1.154-1.157,2.403-1.423,3.71
		c-0.268,1.312-0.314,2.678-0.136,4.075c0.176,1.372,0.603,2.851,1.269,4.254c1.636,3.449,4.124,4.025,5.46,4.025c0,0,0,0,0.001,0
		c0.54,0,1.068-0.142,1.578-0.301c0.631,2.013,1.341,3.95,2.111,5.799c0.746,1.788,1.524,3.52,2.318,5.19
		c0.137,0.289,0.267,0.526,0.406,0.766c0.094,0.159,0.194,0.309,0.3,0.456c-0.798-0.18-1.65-0.21-2.541-0.081
		c-0.782,0.114-1.588,0.36-2.467,0.755c-0.905,0.408-1.703,0.906-2.378,1.489c-0.907,0.783-1.592,1.745-2.036,2.858
		c-0.389,0.974-0.583,2.057-0.575,3.222c0.005,0.878-0.268,1.956-0.039,3.025c0.009,0.042-0.204,0.087-0.193,0.129
		c1.048,4.332,2.411,8.182,2.849,11.698c0.12,0.98,0.222,1.982,0.302,2.974c0.027,0.345,0.05,0.687,0.068,1.023
		c-0.323-1.199-0.613-2.454-0.863-3.732c-0.263-1.345-0.498-2.699-0.699-4.028c-0.212-1.399-0.406-2.696-0.583-3.891
		c-0.191-1.287-0.37-2.373-0.546-3.32c-0.244-1.311-0.522-2.287-0.875-3.072c-0.402-0.893-0.878-1.614-1.459-2.209
		c-0.806-0.822-1.802-1.394-2.879-1.651c-0.969-0.232-2.006-0.216-2.987,0.041c-0.492,0.129-0.999,0.31-1.507,0.538
		c-0.489,0.221-0.968,0.469-1.424,0.741c-0.892,0.529-1.659,1.249-2.281,2.138c-0.578,0.828-1.005,1.813-1.269,2.93
		c-0.219,0.924-0.315,1.978-0.295,3.222c0,0.036,0.001,0.073,0.003,0.109c0.063,1.622,0.205,3.274,0.422,4.911
		c0.219,1.65,0.516,3.297,0.881,4.896c0.368,1.607,0.808,3.199,1.308,4.731c0.51,1.559,1.094,3.073,1.736,4.499
		c1.071,2.378,2.234,4.431,3.458,6.101c1.309,1.786,2.615,3.176,3.99,4.246c1.593,1.239,3.253,2.045,4.933,2.393
		c0.661,0.137,1.323,0.206,1.97,0.206c1.26,0,2.473-0.259,3.606-0.769c1.957-0.882,3.637-2.062,4.996-3.514
		c1.15-1.23,2.037-2.696,2.647-4.372c0.895,0.473,1.828,0.821,2.792,1.04c2.078,0.473,4.259,0.23,6.346-0.709
		c1.415-0.637,2.694-1.514,3.806-2.609c1.026-1.012,1.917-2.196,2.653-3.521c0.688-1.242,1.25-2.623,1.668-4.103
		c0.391-1.382,0.674-2.873,0.841-4.43c0.01-0.098,0.018-0.194,0.022-0.292c0.011-0.238,0.064-1.478,0.055-2.968
		c0.679,0.193,1.381,0.319,2.103,0.376c1.612,0.131,3.288-0.143,4.955-0.807c0.98-0.391,1.912-0.896,2.76-1.493
		c0.752-0.528,1.464-1.12,2.121-1.764c0.378,0.06,0.761,0.096,1.146,0.106c1.22,0.035,2.402-0.174,3.511-0.615
		c0.95-0.379,1.84-0.911,2.636-1.577c0.402-0.335,0.786-0.696,1.149-1.081c1.364,0.244,2.787,0.093,4.135-0.445
		c1.269-0.506,2.399-1.305,3.364-2.38c0.363-0.406,0.702-0.835,1.018-1.282c1.77,0.487,3.618,0.382,5.352-0.31
		c0.832-0.331,1.654-0.822,2.442-1.456c0.504-0.406,1.015-0.878,1.551-1.435c1.25,0.345,2.614,0.259,3.882-0.249
		c1.116-0.444,2.054-1.167,2.722-2.104c0.355-0.499,0.636-1.055,0.841-1.662c0.431,0.171,0.875,0.307,1.333,0.407
		c1.488,0.328,3.049,0.19,4.532-0.4c0.793-0.316,1.56-0.759,2.272-1.31c0.542-0.418,1.067-0.885,1.554-1.381
		c0.402-0.408,0.791-0.844,1.155-1.293c0.493,0.109,0.997,0.186,1.511,0.227c1.614,0.13,3.291-0.144,4.955-0.807
		c0.978-0.39,1.909-0.894,2.764-1.496c0.667-0.47,1.304-0.988,1.896-1.55c1.265,0.274,2.612,0.146,3.928-0.378
		c0.807-0.322,1.518-0.792,2.101-1.382c0.677-0.68,1.175-1.514,1.482-2.488c0.181-0.577,0.294-1.194,0.346-1.882
		c0.037-0.483,0.046-1.021,0.026-1.638c1.008-0.03,2.048-0.256,3.097-0.675c0.886-0.354,1.711-0.837,2.458-1.439
		c0.569-0.459,1.103-0.965,1.583-1.498c0.43-0.479,0.831-0.973,1.189-1.471c0.26-0.36,0.491-0.686,0.696-0.977
		C141.247,31.549,141.241,27.924,138.949,25.632z M50.3,31.412c0.15-0.924,0.362-1.746,0.635-2.466
		c0.273-0.722,0.611-1.38,1.012-1.976c0.402-0.598,0.859-1.112,1.372-1.546c0.512-0.434,1.074-0.741,1.686-0.923
		c0.204-0.06,0.375-0.067,0.514-0.021c0.139,0.046,0.261,0.109,0.367,0.189s0.208,0.158,0.309,0.235
		c0.1,0.076,0.209,0.122,0.329,0.135c0.119,0.013,0.236,0.01,0.351-0.01s0.23-0.047,0.345-0.081
		c0.097-0.028,0.196-0.061,0.297-0.095c0.1-0.034,0.2-0.066,0.297-0.095c0.132-0.04,0.261-0.063,0.384-0.071
		c0.123-0.007,0.242,0.021,0.356,0.083c0.115,0.063,0.22,0.168,0.316,0.313c0.097,0.146,0.185,0.356,0.267,0.633
		c0.125,0.421,0.219,0.901,0.284,1.44c0.064,0.539,0.119,1.096,0.165,1.668c0.045,0.572,0.098,1.225,0.157,1.957
		s0.159,1.334,0.299,1.807c0.119,0.403,0.25,0.709,0.393,0.914s0.337,0.271,0.583,0.198c0.185-0.055,0.365-0.157,0.54-0.31
		c0.176-0.152,0.346-0.333,0.508-0.542c0.163-0.21,0.32-0.439,0.472-0.688s0.29-0.502,0.415-0.758
		c0.272-0.56,0.635-1.475,0.897-2.184c-0.295-0.738-0.575-1.535-0.833-2.406c-0.157-0.529-0.302-1.099-0.436-1.712
		c-0.134-0.611-0.25-1.225-0.346-1.838c-0.278,0.04-0.495,0.064-0.651,0.073c-0.157,0.009-0.323,0.021-0.496,0.035
		c-0.174,0.014-0.394,0.039-0.658,0.074c-0.264,0.036-0.645,0.097-1.141,0.179c-0.221,0.033-0.402,0.026-0.542-0.023
		c-0.14-0.049-0.252-0.122-0.34-0.219c-0.087-0.098-0.152-0.206-0.198-0.325c-0.045-0.12-0.081-0.225-0.107-0.312
		c-0.041-0.139,0.014-0.271,0.165-0.395c0.151-0.125,0.356-0.245,0.616-0.362c0.259-0.116,0.549-0.225,0.872-0.325
		c0.322-0.1,0.632-0.189,0.932-0.269c0.299-0.079,0.566-0.151,0.803-0.217c0.235-0.064,0.396-0.119,0.478-0.162
		c-0.114-1.257-0.153-2.495-0.118-3.714c0.036-1.221,0.151-2.329,0.349-3.329c0.197-0.999,0.485-1.839,0.867-2.521
		c0.381-0.682,0.867-1.109,1.456-1.284c0.379-0.112,0.756-0.109,1.131,0.01c0.376,0.118,0.726,0.32,1.051,0.607
		c0.324,0.287,0.616,0.648,0.875,1.083c0.258,0.437,0.464,0.909,0.615,1.419c0.125,0.423,0.195,0.887,0.211,1.394
		c0.015,0.506-0.01,1.034-0.077,1.583c-0.067,0.55-0.17,1.117-0.308,1.701c-0.139,0.585-0.293,1.17-0.465,1.756
		c0.071-0.053,0.202-0.098,0.392-0.135s0.408-0.089,0.652-0.153c0.245-0.064,0.509-0.135,0.793-0.212
		c0.284-0.076,0.559-0.148,0.827-0.219c0.266-0.07,0.516-0.134,0.747-0.193c0.232-0.059,0.424-0.106,0.577-0.142
		c0.179-0.043,0.336,0.018,0.469,0.181c0.135,0.162,0.245,0.386,0.329,0.67c0.098,0.329,0.088,0.624-0.027,0.883
		c-0.115,0.26-0.279,0.42-0.49,0.482l-5.08,1.506c-0.152,0.428-0.309,0.852-0.47,1.268c-0.16,0.417-0.311,0.794-0.451,1.133
		c0.126,0.557,0.255,1.103,0.385,1.639c0.06,0.232,0.121,0.471,0.184,0.715c0.062,0.245,0.125,0.488,0.187,0.729
		s0.123,0.471,0.184,0.693c0.061,0.221,0.119,0.425,0.173,0.609c0.141,0.476,0.304,0.864,0.489,1.163
		c0.185,0.3,0.392,0.528,0.622,0.686c0.229,0.157,0.478,0.246,0.749,0.267s0.557-0.014,0.857-0.104
		c0.185-0.055,0.403-0.167,0.655-0.338c0.251-0.17,0.52-0.381,0.805-0.634c0.284-0.252,0.579-0.538,0.882-0.858
		c0.303-0.319,0.596-0.658,0.879-1.015c0.283-0.357,0.546-0.723,0.79-1.097c0.244-0.374,0.456-0.746,0.634-1.115
		c0,0,0.489-0.33,1.17,0.351c0.682,0.682,0.291,1.509,0.291,1.509c-0.37,0.834-1.786,2.923-2.337,3.489
		c-0.552,0.565-1.05,1.049-1.492,1.448c-0.443,0.4-0.847,0.721-1.212,0.963c-0.365,0.242-0.71,0.412-1.037,0.509
		c-0.666,0.197-1.312,0.169-1.941-0.086s-1.226-0.712-1.794-1.373c-0.24-0.279-0.472-0.601-0.699-0.947
		c-0.125,0.403-0.3,1.004-0.48,1.391c-0.225,0.483-0.499,0.962-0.818,1.435c-0.32,0.473-0.687,0.901-1.1,1.285
		c-0.413,0.385-0.862,0.648-1.346,0.791c-0.585,0.174-1.128,0.134-1.629-0.121s-0.997-0.693-1.491-1.315
		c-0.141,0.307-0.329,0.634-0.564,0.979s-0.508,0.674-0.816,0.988c-0.308,0.314-0.642,0.596-1.002,0.845
		c-0.361,0.25-0.741,0.433-1.141,0.552c-0.423,0.125-0.86,0.16-1.312,0.106c-0.452-0.055-0.88-0.198-1.285-0.432
		c-0.404-0.232-0.769-0.556-1.092-0.967c-0.323-0.412-0.572-0.911-0.746-1.498c-0.195-0.658-0.302-1.361-0.322-2.109
		C50.083,33.171,50.149,32.335,50.3,31.412z M51.362,46.286c0.424-0.858,0.785-1.751,1.083-2.669
		c0.173,0.033,0.348,0.062,0.524,0.083c0.327,0.039,0.658,0.06,0.984,0.06c0,0,0,0,0,0c0.77,0,1.533-0.11,2.271-0.329
		c0.886-0.263,1.729-0.668,2.508-1.205c0.25-0.173,0.495-0.356,0.732-0.55c1.1,0.22,2.272,0.164,3.403-0.171
		c1.201-0.355,2.297-0.988,3.258-1.882c0.202-0.188,0.397-0.383,0.587-0.585c1.257,0.362,2.584,0.392,3.88,0.089
		c0.02,0.281,0.039,0.563,0.065,0.847c-0.267,0.129-0.52,0.261-0.765,0.399c-0.682,0.385-1.246,0.802-1.734,1.283
		c-0.494,0.489-0.878,1.045-1.148,1.638c-0.335,0.073-0.668,0.177-0.998,0.308c-1.347,0.537-2.56,1.348-3.607,2.411
		c-0.886,0.9-1.658,1.945-2.296,3.107c-0.012,0.022-0.024,0.044-0.036,0.065c-0.228-0.109-0.461-0.21-0.7-0.3
		c-1.082-0.407-2.246-0.603-3.429-0.577c-1.151,0.024-2.304,0.263-3.434,0.712c-1.118,0.446-2.114,1.051-2.971,1.801
		c-0.133-0.332-0.27-0.655-0.41-0.968c-0.011-0.023-0.023-0.047-0.034-0.07C49.985,48.707,50.744,47.535,51.362,46.286z
		 M30.392,39.902c-0.595-1.896-0.979-3.635-1.154-5.219c-0.176-1.584-0.148-3.135,0.083-4.656c0.058-0.371,0.61-0.806,1.656-1.302
		c0.825-0.392,1.559-0.372,2.203,0.057c-0.162,0.812-0.218,1.657-0.17,2.535c0.049,0.878,0.14,1.721,0.273,2.529
		c0.133,0.808,0.333,1.665,0.597,2.571c0.509,1.749,0.773,2.632,0.792,2.646c0.039,0.006,0.368,0.987,0.988,2.945
		c0.206,0.685,0.396,1.277,0.567,1.776c0.171,0.5,0.33,0.934,0.476,1.304c0.146,0.368,0.299,0.723,0.459,1.062
		c0.17,0.358,0.324,0.652,0.463,0.883c0.139,0.23,0.289,0.396,0.45,0.497c0.161,0.102,0.351,0.139,0.57,0.112
		c0.219-0.026,0.489-0.116,0.809-0.269c0.97-0.46,1.801-1.089,2.492-1.885c0.692-0.797,1.254-1.692,1.686-2.686
		c0.432-0.993,0.74-2.055,0.923-3.185c0.183-1.131,0.215-2.353,0.097-3.665c-0.118-1.313-0.299-2.514-0.542-3.603
		c-0.243-1.087-0.581-2.086-1.012-2.995c-0.532-1.123-1.193-2.039-1.982-2.75s-1.661-1.215-2.617-1.514
		c-0.957-0.299-1.978-0.39-3.062-0.272c-1.086,0.118-2.187,0.442-3.302,0.972c-0.814,0.387-1.599,0.818-2.352,1.295
		c-0.753,0.478-1.422,0.979-2.008,1.509c-0.587,0.528-1.063,1.074-1.432,1.637s-0.579,1.125-0.633,1.687
		c-0.185,1.437-0.363,2.562-0.535,3.377c-0.171,0.814-0.412,1.296-0.722,1.443c-0.426,0.202-0.872-0.186-1.336-1.165
		c-0.45-0.949-0.731-1.86-0.843-2.733c-0.111-0.874-0.086-1.707,0.077-2.503c0.162-0.795,0.449-1.543,0.859-2.242
		c0.41-0.698,0.913-1.353,1.508-1.962c0.595-0.609,1.27-1.17,2.024-1.683c0.754-0.512,1.557-0.971,2.41-1.375
		c1.584-0.752,3.057-1.291,4.414-1.615c1.358-0.325,2.611-0.478,3.76-0.454c1.148,0.022,2.195,0.202,3.141,0.54
		s1.798,0.791,2.557,1.359c0.759,0.568,1.429,1.235,2.012,1.999s1.085,1.59,1.506,2.478c0.581,1.225,1.074,2.615,1.48,4.172
		s0.629,3.045,0.672,4.465c0.042,1.42-0.069,2.823-0.334,4.21c-0.264,1.387-0.701,2.694-1.309,3.923
		c-0.607,1.229-1.39,2.341-2.347,3.336s-2.11,1.814-3.461,2.455c-0.451,0.214-0.928,0.398-1.431,0.552
		c-0.503,0.153-1.004,0.276-1.501,0.367c-0.499,0.091-0.979,0.155-1.442,0.193c-0.464,0.039-0.882,0.049-1.255,0.031
		c-0.143,0.021-0.264,0.02-0.361,0c-0.098-0.021-0.184-0.059-0.258-0.115c-0.074-0.056-0.141-0.135-0.202-0.24
		c-0.061-0.104-0.131-0.24-0.212-0.408c-0.762-1.607-1.503-3.272-2.222-4.995C31.642,43.605,30.985,41.797,30.392,39.902z
		 M37.598,35.25l0.001-0.001c0.05,0.039,0.095,0.078,0.142,0.118C37.693,35.327,37.646,35.287,37.598,35.25z M38.496,35.073
		c-0.21-0.721-0.368-1.397-0.47-2.015c-0.104-0.63-0.177-1.305-0.216-2.002c-0.017-0.322-0.01-0.634,0.023-0.931
		c0.021,0.018,0.041,0.036,0.062,0.054c0.312,0.282,0.6,0.699,0.856,1.239c0.277,0.583,0.5,1.249,0.663,1.98
		c0.197,0.885,0.347,1.889,0.445,2.985c0.082,0.908,0.063,1.738-0.054,2.466c-0.012,0.073-0.025,0.147-0.039,0.221
		c-0.1-0.309-0.187-0.573-0.261-0.795c-0.104-0.312-0.187-0.545-0.245-0.702c-0.035-0.093-0.071-0.183-0.108-0.271
		C39.076,37.049,38.897,36.453,38.496,35.073z M39.055,37.085c-0.223-0.469-0.485-0.858-0.768-1.184
		C38.666,36.331,38.909,36.76,39.055,37.085z M38.286,35.899c-0.043-0.049-0.086-0.096-0.129-0.143
		C38.202,35.805,38.244,35.852,38.286,35.899z M135.062,31.865c-0.202,0.287-0.432,0.609-0.69,0.968s-0.546,0.713-0.861,1.063
		c-0.316,0.352-0.661,0.678-1.033,0.978c-0.373,0.301-0.78,0.538-1.22,0.715c-0.787,0.313-1.485,0.406-2.095,0.278
		c-0.61-0.127-1.161-0.395-1.651-0.801s-0.932-0.904-1.327-1.495c-0.393-0.591-0.764-1.2-1.111-1.827l-0.252,0.1l0.314,8.976
		c0.016,0.468,0.012,0.861-0.013,1.182c-0.024,0.319-0.071,0.591-0.14,0.812c-0.07,0.223-0.17,0.399-0.3,0.53
		c-0.129,0.131-0.29,0.233-0.478,0.309c-0.43,0.172-0.813,0.218-1.148,0.139c-0.335-0.078-0.636-0.244-0.901-0.498
		c-0.266-0.253-0.5-0.566-0.704-0.941c-0.075-0.138-0.145-0.282-0.215-0.426c-0.3,0.463-0.626,0.932-0.988,1.407
		c-0.395,0.521-0.829,1.016-1.304,1.487c-0.476,0.471-0.99,0.901-1.546,1.292s-1.149,0.712-1.779,0.963
		c-0.979,0.391-1.909,0.551-2.788,0.479c-0.88-0.069-1.687-0.313-2.421-0.732c-0.384-0.219-0.744-0.479-1.082-0.778
		c-0.121,0.192-0.261,0.413-0.431,0.68c-0.207,0.322-0.439,0.669-0.698,1.04c-0.26,0.372-0.547,0.758-0.862,1.158
		c-0.314,0.399-0.643,0.772-0.985,1.12c-0.341,0.348-0.696,0.663-1.063,0.946c-0.366,0.283-0.739,0.5-1.117,0.65
		c-0.591,0.236-1.162,0.294-1.714,0.171c-0.552-0.121-1.059-0.354-1.519-0.697c-0.461-0.344-0.868-0.757-1.223-1.241
		c-0.355-0.484-0.627-0.967-0.819-1.447c-0.135-0.339-0.241-0.735-0.314-1.191s-0.126-0.922-0.16-1.4
		c-0.033-0.479-0.044-0.952-0.036-1.423c0.008-0.47,0.023-0.894,0.044-1.27c0.021-0.377,0.045-0.688,0.074-0.933
		c0.029-0.245,0.053-0.39,0.074-0.436l-0.349,0.084c-0.133,0.186-0.319,0.597-0.557,1.233c-0.239,0.636-0.484,1.416-0.736,2.341
		c-0.252,0.924-0.487,1.942-0.705,3.059c-0.218,1.114-0.37,2.236-0.455,3.364c-0.045,0.56-0.071,1.041-0.079,1.447
		c-0.008,0.406-0.042,0.744-0.098,1.013c-0.058,0.268-0.149,0.49-0.273,0.665c-0.125,0.175-0.319,0.315-0.581,0.419
		c-0.346,0.139-0.656,0.154-0.93,0.046c-0.274-0.107-0.525-0.296-0.753-0.563c-0.229-0.269-0.438-0.595-0.626-0.976
		c-0.102-0.206-0.191-0.429-0.287-0.644c-0.365,0.46-0.709,0.89-1.031,1.285c-0.612,0.755-1.167,1.401-1.665,1.941
		c-0.497,0.538-0.955,0.977-1.375,1.312c-0.42,0.338-0.824,0.585-1.212,0.74c-0.793,0.315-1.588,0.354-2.386,0.111
		c-0.798-0.241-1.581-0.734-2.35-1.479c-0.297-0.288-0.601-0.579-0.904-0.896c-0.106,0.435-0.269,0.957-0.489,1.57
		c-0.223,0.617-0.502,1.233-0.841,1.848s-0.74,1.18-1.202,1.695c-0.463,0.518-0.983,0.891-1.56,1.12
		c-0.697,0.278-1.366,0.289-2.007,0.034c-0.642-0.256-1.298-0.738-1.973-1.443c-0.138,0.392-0.332,0.812-0.582,1.26
		c-0.25,0.449-0.547,0.884-0.888,1.303c-0.342,0.418-0.72,0.801-1.134,1.146c-0.413,0.346-0.858,0.613-1.334,0.803
		c-0.503,0.201-1.035,0.294-1.594,0.277c-0.56-0.017-1.1-0.144-1.622-0.384c-0.383-0.176-0.744-0.415-1.084-0.715
		c-0.194,0.281-0.397,0.562-0.612,0.848c-0.396,0.521-0.83,1.016-1.304,1.486c-0.476,0.471-0.99,0.902-1.547,1.292
		c-0.555,0.392-1.148,0.712-1.778,0.963c-0.979,0.391-1.909,0.552-2.788,0.48c-0.88-0.069-1.687-0.314-2.421-0.732
		c-0.734-0.42-1.385-0.982-1.951-1.691c-0.383-0.479-0.714-1.003-1-1.564c-0.906-0.054-1.909-0.239-2.941-0.649
		c0.212,0.818,0.358,1.649,0.417,2.496c0.094,1.349,0.179,1.725,0.408,3.238c0.322,2.136,0.141,6.067,0.141,6.067
		c-0.139,1.292-0.367,2.504-0.687,3.634c-0.32,1.129-0.735,2.156-1.248,3.082c-0.514,0.925-1.121,1.735-1.824,2.429
		c-0.703,0.692-1.504,1.241-2.402,1.646c-1.138,0.513-2.24,0.646-3.307,0.404c-1.067-0.242-2.082-0.769-3.044-1.579
		c-0.962-0.81-1.872-1.86-2.727-3.152s-1.637-2.727-2.346-4.301c-0.26-0.578-0.474-1.131-0.641-1.663s-0.322-1.005-0.464-1.418
		c0.801,2.936,1.29,5.474,1.465,7.614c0.176,2.141,0.074,3.968-0.307,5.484c-0.381,1.515-1.032,2.766-1.954,3.752
		c-0.923,0.986-2.075,1.791-3.458,2.414c-0.793,0.356-1.668,0.436-2.625,0.238c-0.957-0.199-1.942-0.691-2.954-1.479
		c-1.013-0.788-2.034-1.886-3.065-3.294c-1.032-1.408-2.015-3.151-2.952-5.231c-0.574-1.274-1.09-2.614-1.549-4.02
		c-0.459-1.405-0.856-2.843-1.192-4.311c-0.336-1.467-0.602-2.953-0.801-4.454c-0.199-1.501-0.327-2.989-0.384-4.467
		c-0.013-0.833,0.042-1.513,0.167-2.038c0.124-0.526,0.302-0.952,0.53-1.28c0.229-0.326,0.494-0.579,0.797-0.76
		c0.301-0.179,0.615-0.342,0.94-0.488c0.264-0.118,0.513-0.209,0.747-0.27c0.232-0.061,0.45-0.067,0.652-0.019
		s0.391,0.162,0.566,0.341c0.174,0.179,0.344,0.451,0.509,0.817c0.187,0.416,0.364,1.074,0.532,1.977
		c0.167,0.901,0.339,1.952,0.518,3.149c0.179,1.198,0.373,2.499,0.585,3.902s0.458,2.813,0.735,4.231
		c0.276,1.418,0.595,2.793,0.955,4.122s0.779,2.525,1.257,3.588c0.391,0.867,0.812,1.651,1.265,2.352
		c0.452,0.7,0.924,1.273,1.414,1.722c0.491,0.447,0.988,0.749,1.491,0.903c0.504,0.156,1.002,0.122,1.496-0.1
		c0.492-0.222,0.905-0.584,1.236-1.085c0.332-0.502,0.597-1.107,0.799-1.816c0.202-0.708,0.341-1.506,0.42-2.395
		c0.077-0.888,0.114-1.827,0.109-2.817c-0.005-0.99-0.05-2.015-0.135-3.071c-0.086-1.057-0.193-2.115-0.322-3.174
		c-0.465-3.732-1.245-7.858-2.339-12.381c-0.158-0.736-0.239-1.377-0.242-1.92c-0.003-0.542,0.074-1.01,0.231-1.404
		s0.396-0.729,0.716-1.007c0.32-0.275,0.722-0.522,1.208-0.741c0.458-0.206,0.854-0.334,1.186-0.383
		c0.333-0.048,0.619-0.039,0.858,0.026c0.239,0.066,0.44,0.185,0.605,0.356c0.164,0.172,0.303,0.384,0.417,0.637
		c0.038,0.084,0.148,0.458,0.331,1.12c0.182,0.662,0.416,1.511,0.701,2.546c0.286,1.036,0.617,2.205,0.995,3.51
		c0.377,1.306,0.782,2.638,1.214,3.998c0.431,1.359,0.883,2.692,1.356,3.998c0.471,1.305,0.945,2.487,1.421,3.545
		c0.487,1.082,0.966,2.041,1.436,2.878s0.936,1.52,1.397,2.049s0.915,0.89,1.36,1.08c0.446,0.189,0.89,0.185,1.333-0.015
		c0.766-0.345,1.327-0.959,1.686-1.843c0.357-0.884,0.571-1.945,0.639-3.184c0.069-1.238,0.012-2.611-0.17-4.119
		c-0.182-1.509-0.552-3.417-1.108-5.725c-0.557-2.309-0.834-3.462-0.834-3.461c0,0.001-0.381-1.22-1.145-3.665
		c-0.208-0.664-0.396-1.267-0.568-1.817c-1.591-2.459-4.081-7.034-1.326-8.016c0.217-0.262,0.474-0.499,0.792-0.701
		c0.373-0.236,0.769-0.449,1.187-0.638c0.327-0.146,0.638-0.25,0.933-0.311c0.295-0.06,0.574-0.059,0.837,0.001
		c0.264,0.062,0.502,0.19,0.718,0.392s0.412,0.494,0.585,0.88c0.481,1.068,0.908,2.289,1.282,3.663
		c0.373,1.374,0.695,2.777,0.964,4.211c0.079,0.42,0.17,0.832,0.268,1.239c0.734,0.71,1.804,1.338,3.36,1.695
		c-0.086-0.81-0.138-1.549-0.15-2.208c-0.013-0.716,0.046-1.426,0.175-2.132c0.129-0.705,0.347-1.368,0.65-1.986
		c0.303-0.62,0.699-1.173,1.187-1.662c0.489-0.488,1.093-0.877,1.813-1.164c0.588-0.234,1.172-0.358,1.751-0.37
		c0.58-0.012,1.124,0.077,1.632,0.27c0.509,0.191,0.963,0.487,1.366,0.885c0.402,0.398,0.723,0.896,0.96,1.493
		c0.254,0.636,0.325,1.435,0.215,2.394c-0.112,0.96-0.338,1.834-0.681,2.625c-0.343,0.791-0.818,1.562-1.425,2.316
		c-0.608,0.753-1.319,1.436-2.136,2.046c0.268,0.214,0.516,0.383,0.742,0.508c0.226,0.123,0.438,0.205,0.638,0.244
		c0.199,0.04,0.393,0.045,0.583,0.017c0.19-0.027,0.386-0.082,0.585-0.162c0.629-0.25,1.244-0.638,1.844-1.162
		c0.6-0.524,1.156-1.104,1.669-1.736c0.376-0.463,0.717-0.939,1.04-1.424c-0.101-0.413-0.178-0.84-0.23-1.284
		c-0.108-0.914-0.121-1.944-0.041-3.091c0.081-1.147,0.248-2.178,0.502-3.091c0.253-0.912,0.592-1.756,1.017-2.531
		c0.425-0.775,0.926-1.457,1.506-2.046c0.579-0.587,1.232-1.027,1.96-1.317c0.242-0.097,0.452-0.125,0.627-0.084
		c0.175,0.041,0.332,0.104,0.47,0.19c0.139,0.086,0.273,0.171,0.404,0.254c0.131,0.083,0.27,0.125,0.418,0.127
		c0.148,0.004,0.291-0.014,0.43-0.051c0.138-0.036,0.275-0.082,0.413-0.137c0.115-0.047,0.233-0.096,0.353-0.149
		c0.119-0.054,0.237-0.104,0.353-0.15c0.159-0.063,0.312-0.105,0.462-0.129c0.15-0.022,0.299-0.002,0.447,0.062
		c0.147,0.064,0.288,0.18,0.421,0.348c0.134,0.168,0.267,0.416,0.397,0.745c0.201,0.501,0.369,1.078,0.509,1.732
		c0.139,0.651,0.269,1.327,0.389,2.022c0.12,0.694,0.257,1.487,0.411,2.378c0.155,0.89,0.344,1.615,0.568,2.179
		c0.192,0.48,0.386,0.839,0.583,1.074c0.197,0.235,0.442,0.295,0.737,0.177c0.221-0.087,0.429-0.234,0.626-0.439
		c0.198-0.205,0.385-0.445,0.561-0.721s0.343-0.573,0.5-0.896c0.157-0.322,0.298-0.646,0.423-0.973
		c0.29-0.768,0.556-1.608,0.8-2.525l0.125,0.187c-0.47-1.003-0.906-2.148-1.36-3.288c-0.251-0.63-0.494-1.312-0.726-2.045
		c-0.232-0.734-0.442-1.472-0.628-2.212c-0.336,0.079-0.599,0.134-0.789,0.162c-0.191,0.028-0.392,0.062-0.603,0.099
		c-0.212,0.037-0.477,0.092-0.797,0.165s-0.779,0.189-1.377,0.346c-0.267,0.066-0.489,0.077-0.666,0.033
		c-0.177-0.045-0.324-0.122-0.441-0.23c-0.117-0.109-0.21-0.234-0.278-0.376c-0.07-0.143-0.125-0.266-0.167-0.371
		c-0.065-0.165-0.012-0.333,0.158-0.502c0.171-0.168,0.409-0.338,0.713-0.51c0.304-0.173,0.647-0.338,1.031-0.497
		c0.383-0.158,0.752-0.303,1.11-0.433c0.358-0.131,0.677-0.249,0.958-0.355c0.282-0.106,0.472-0.19,0.568-0.253
		c-0.28-1.525-0.466-3.036-0.559-4.533c-0.094-1.497-0.076-2.867,0.053-4.113c0.129-1.245,0.388-2.307,0.779-3.183
		c0.39-0.878,0.936-1.457,1.638-1.736c0.451-0.18,0.913-0.218,1.387-0.115c0.473,0.104,0.924,0.312,1.354,0.627
		c0.429,0.314,0.828,0.723,1.192,1.228c0.365,0.504,0.669,1.06,0.912,1.668c0.2,0.503,0.338,1.063,0.414,1.681
		c0.077,0.619,0.104,1.268,0.083,1.948c-0.021,0.681-0.083,1.386-0.187,2.117s-0.228,1.464-0.373,2.2
		c0.081-0.072,0.237-0.143,0.465-0.209c0.229-0.066,0.489-0.153,0.781-0.26c0.292-0.106,0.607-0.223,0.946-0.349
		c0.339-0.125,0.668-0.245,0.986-0.36c0.32-0.115,0.618-0.222,0.894-0.319c0.277-0.1,0.507-0.178,0.69-0.239
		c0.06-0.02,0.119-0.027,0.177-0.027c-0.2-0.838-0.401-1.68-0.6-2.513c-0.381-1.595-0.624-3.158-0.73-4.692
		c-0.107-1.534-0.054-2.944,0.159-4.229c0.212-1.284,0.617-2.398,1.214-3.343c0.598-0.944,1.442-1.635,2.536-2.07
		c0.566-0.226,1.064-0.326,1.493-0.302s0.812,0.147,1.149,0.367c0.337,0.221,0.633,0.527,0.887,0.921
		c0.255,0.395,0.487,0.854,0.697,1.383c0.313,0.784,0.549,1.697,0.709,2.738c0.159,1.042,0.264,2.149,0.312,3.321
		c0.047,1.172,0.051,2.377,0.01,3.615c-0.042,1.239-0.105,2.449-0.192,3.633c-0.088,1.184-0.19,2.308-0.307,3.373
		c-0.116,1.066-0.219,2.004-0.31,2.813l0.403,0.097c0.198-0.753,0.432-1.569,0.701-2.452c0.269-0.882,0.677-1.938,1.227-3.168
		c0.548-1.23,1.032-2.15,1.452-2.762c0.419-0.61,0.881-1.016,1.384-1.217c0.126-0.05,0.277-0.082,0.454-0.097
		c0.177-0.015,0.361,0.014,0.554,0.086c0.193,0.071,0.383,0.204,0.568,0.396c0.186,0.191,0.352,0.47,0.497,0.833
		c0.29,0.728,0.472,1.476,0.548,2.243c0.076,0.77,0.031,1.757-0.132,2.963c-0.164,1.205-0.2,2.204-0.108,2.998
		c0.091,0.793,0.293,1.58,0.604,2.36c0.17,0.428,0.369,0.745,0.598,0.951c0.228,0.207,0.442,0.27,0.641,0.19
		c0.252-0.101,0.498-0.26,0.739-0.479c0.241-0.219,0.469-0.47,0.685-0.752c0.215-0.283,0.416-0.587,0.603-0.913
		c0.186-0.326,0.353-0.653,0.501-0.983c0.224-0.477,0.43-0.983,0.624-1.514c-0.015-0.036-0.033-0.07-0.047-0.107
		c-0.231-0.579-0.397-1.313-0.498-2.204c-0.101-0.89-0.158-1.691-0.171-2.406c-0.013-0.715,0.045-1.425,0.175-2.131
		s0.347-1.368,0.65-1.987c0.303-0.619,0.699-1.173,1.187-1.661c0.489-0.489,1.093-0.877,1.813-1.164
		c0.589-0.234,1.172-0.358,1.751-0.37c0.58-0.012,1.124,0.077,1.632,0.269c0.509,0.192,0.963,0.487,1.366,0.886
		c0.403,0.397,0.723,0.896,0.961,1.493c0.253,0.636,0.325,1.434,0.214,2.394c-0.112,0.959-0.338,1.834-0.681,2.625
		c-0.343,0.791-0.818,1.562-1.425,2.315c-0.608,0.753-1.319,1.437-2.136,2.047c0.268,0.214,0.516,0.383,0.742,0.507
		s0.438,0.205,0.638,0.245c0.199,0.039,0.393,0.045,0.583,0.017c0.19-0.028,0.386-0.082,0.585-0.162
		c0.629-0.25,1.244-0.638,1.844-1.163c0.6-0.524,1.156-1.103,1.669-1.735c0.514-0.633,0.978-1.284,1.391-1.954
		c0.174-0.282,0.33-0.55,0.476-0.811c-0.026-0.101-0.053-0.196-0.08-0.298c-0.183-0.718-0.354-1.454-0.517-2.211
		c-0.162-0.756-0.308-1.573-0.438-2.451c-0.131-0.878-0.236-1.611-0.312-2.2c-0.077-0.59-0.116-1.084-0.118-1.485
		c-0.008-0.264,0.003-0.481,0.033-0.65c0.029-0.171,0.084-0.316,0.162-0.439c0.079-0.123,0.194-0.229,0.347-0.32
		c0.152-0.09,0.348-0.185,0.591-0.281c0.271-0.108,0.49-0.18,0.652-0.214c0.162-0.035,0.3-0.018,0.414,0.053
		c0.113,0.071,0.215,0.197,0.306,0.38c0.091,0.183,0.202,0.437,0.331,0.762c0.155,0.389,0.348,0.95,0.58,1.684
		c0.232,0.734,0.466,1.364,0.7,1.892l0.173-0.069c0.043-0.503,0.085-1.158,0.129-1.966c0.042-0.808,0.146-1.506,0.313-2.095
		s0.408-1.126,0.726-1.611c0.317-0.484,0.764-0.843,1.341-1.072c0.199-0.08,0.407-0.123,0.623-0.13
		c0.216-0.007,0.42,0.023,0.612,0.093c0.191,0.07,0.366,0.18,0.523,0.33c0.158,0.149,0.282,0.34,0.374,0.57
		c0.071,0.18,0.144,0.439,0.22,0.779c0.075,0.341,0.158,0.792,0.247,1.352c0.09,0.561,0.174,1.016,0.254,1.367
		c0.079,0.352,0.162,0.638,0.25,0.857c0.15,0.378,0.312,0.678,0.486,0.9c0.174,0.223,0.353,0.386,0.533,0.49
		c0.181,0.104,0.36,0.156,0.538,0.159c0.177,0.002,0.35-0.03,0.518-0.097c0.473-0.188,0.918-0.487,1.338-0.898
		c0.42-0.41,0.788-0.831,1.103-1.261c0.372-0.5,0.716-1.039,1.034-1.615c0,0,0.329-0.445,1.717,0.943
		C136.474,29.958,135.062,31.865,135.062,31.865z"/>
	<path fill="#FFFFFF" d="M113.266,36.76c0.169-0.649,0.187-1.139,0.056-1.467c-0.184-0.462-0.422-0.807-0.715-1.034
		c-0.292-0.229-0.565-0.292-0.818-0.192c-0.453,0.182-0.807,0.418-1.062,0.71c-0.256,0.292-0.439,0.612-0.551,0.96
		s-0.167,0.714-0.166,1.101c0.001,0.386,0.013,0.859,0.036,1.421c0.022,0.562,0.086,1.006,0.192,1.331
		c0.106,0.327,0.203,0.604,0.293,0.829c0.379-0.151,0.755-0.411,1.127-0.779c0.372-0.367,0.69-0.777,0.956-1.229
		C112.881,37.959,113.098,37.41,113.266,36.76z"/>
	<path fill="#FFFFFF" d="M70.253,56.52l-0.866-5.583c-0.431,0.171-0.807,0.444-1.131,0.821c-0.324,0.376-0.595,0.818-0.812,1.326
		c-0.216,0.509-0.383,1.058-0.501,1.647c-0.118,0.589-0.187,1.285-0.206,2.089c-0.02,0.803,0.012,1.489,0.1,2.058
		c0.079,0.514,0.202,0.977,0.359,1.4l0.089,0.039c-0.013,0.034-0.029,0.067-0.042,0.102c0.108,0.27,0.23,0.523,0.368,0.763
		s0.294,0.44,0.468,0.603c0.175,0.163,0.366,0.274,0.573,0.336s0.432,0.044,0.674-0.052c0.389-0.155,0.673-0.465,0.853-0.929
		c0.181-0.463,0.293-0.979,0.334-1.547c0.042-0.567,0.033-1.133-0.027-1.696C70.423,57.334,70.346,56.875,70.253,56.52z"/>
	<path fill="#FFFFFF" d="M80.22,34.009c-0.045-0.114-0.104-0.239-0.176-0.374c-0.072-0.135-0.16-0.254-0.262-0.358
		c-0.103-0.104-0.225-0.177-0.37-0.217c-0.143-0.039-0.316-0.019-0.516,0.062c-0.273,0.109-0.455,0.459-0.542,1.049
		c-0.088,0.59-0.113,1.31-0.075,2.156c0.039,0.849,0.124,1.765,0.255,2.751c0.13,0.986,0.269,1.938,0.416,2.858
		c0.164-0.048,0.328-0.098,0.49-0.148c0.163-0.051,0.332-0.103,0.506-0.154c0.105-0.655,0.206-1.358,0.304-2.111
		c0.096-0.754,0.162-1.482,0.198-2.188c0.036-0.706,0.04-1.353,0.012-1.943C80.432,34.801,80.352,34.341,80.22,34.009z"/>
	<path fill="#FFFFFF" d="M88.18,41.633c-0.062,0.05-0.129,0.094-0.204,0.123l-6.049,2.412c-0.138,0.541-0.283,1.076-0.432,1.604
		c-0.149,0.528-0.292,1.007-0.425,1.438c0.217,0.667,0.436,1.321,0.654,1.963c0.098,0.277,0.2,0.562,0.304,0.855
		s0.208,0.583,0.311,0.87c0.103,0.287,0.204,0.563,0.303,0.827c0.099,0.265,0.193,0.507,0.281,0.728
		c0.226,0.566,0.469,1.022,0.729,1.369c0.26,0.346,0.539,0.603,0.838,0.77c0.298,0.166,0.614,0.246,0.947,0.242
		c0.334-0.006,0.68-0.08,1.038-0.223c0.22-0.088,0.475-0.25,0.764-0.487c0.289-0.236,0.593-0.525,0.914-0.866
		c0.32-0.34,0.649-0.724,0.984-1.148c0.336-0.427,0.656-0.873,0.962-1.342c0.229-0.35,0.438-0.706,0.639-1.064
		c-0.429-1.131-0.874-2.385-1.332-3.771C88.953,44.569,88.546,43.135,88.18,41.633z"/>
</g>
<g>
	<g>
		<path fill="#FFBD69" d="M-41.387,19.915c9.687,0,9.772-15.004,0.108-15.004C-50.965,4.911-51.05,19.915-41.387,19.915
			L-41.387,19.915z"/>
	</g>
</g>
</svg>
