<?xml version="1.0" encoding="utf-8"?>
<!-- Generator: Adobe Illustrator 15.0.0, SVG Export Plug-In . SVG Version: 6.00 Build 0)  -->
<!DOCTYPE svg PUBLIC "-//W3C//DTD SVG 1.1//EN" "http://www.w3.org/Graphics/SVG/1.1/DTD/svg11.dtd">
<svg version="1.1" id="Layer_1" xmlns="http://www.w3.org/2000/svg" xmlns:xlink="http://www.w3.org/1999/xlink" x="0px" y="0px"
	 width="255.117px" height="154.809px" viewBox="10.883 81.191 255.117 154.809"
	 enable-background="new 10.883 81.191 255.117 154.809" xml:space="preserve">
<path fill="#070707" d="M202.122,113.028C176.253,87.79,185.559,92.59,136.646,92.47l-0.003-0.003c-0.246,0-0.479,0.001-0.723,0.001
	c-0.243,0-0.477-0.001-0.723-0.001v0.003c-48.916,0.12-39.608-4.681-65.479,20.558c-26.124,25.486-24.504,79.703-24.504,79.703
	c0,18.69,39.824,33.873,89.985,34.159v0.007c0.24,0,0.48-0.003,0.721-0.004c0.24,0.001,0.48,0.004,0.721,0.004
	c50.681,0,89.986-15.297,89.986-34.166C226.627,192.73,228.245,138.514,202.122,113.028z"/>
<path fill="#070707" d="M236.461,220.152c0,8.024-40.485,14.529-100.876,14.529c-60.39,0-100.873-6.505-100.873-14.529l8.454-49.654
	c0-8.023,32.684-0.014,93.073-0.014c60.391,0,93.487-8.011,93.487,0.014"/>
</svg>
