<?xml version="1.0" encoding="utf-8"?>
<!-- Generator: Adobe Illustrator 15.0.0, SVG Export Plug-In . SVG Version: 6.00 Build 0)  -->
<!DOCTYPE svg PUBLIC "-//W3C//DTD SVG 1.1//EN" "http://www.w3.org/Graphics/SVG/1.1/DTD/svg11.dtd">
<svg version="1.1" id="Layer_1" xmlns="http://www.w3.org/2000/svg" xmlns:xlink="http://www.w3.org/1999/xlink" x="0px" y="0px"
	 width="266px" height="181px" viewBox="0 0 266 181" enable-background="new 0 0 266 181" xml:space="preserve">
<g opacity="0.49">
	<path fill="#42D17F" d="M212.736,86.518c0,0,44.3,32.295,34.974,40.856C238.383,135.934,233.721,115,135.019,115h-10.368
		c-98.702,0-103.365,20.934-112.691,12.374c-9.326-8.561,34.974-40.117,34.974-40.117s25.645-7.217,82.38-7.217
		C186.049,80.04,212.736,86.518,212.736,86.518z"/>
</g>
<path opacity="0.49" fill="#42D17F" d="M218,70.018c0,0-28.78-24.871-88.55-24.871C69.682,45.147,42,70.018,42,70.018v4.259
	c0,0,27.682-9.388,87.45-9.388c59.77,0,88.55,9.388,88.55,9.388V70.018z"/>
<path fill="#FFFFFF" d="M218,82.542c0,0-28.78-9.388-88.55-9.388c-59.768,0-87.45,9.388-87.45,9.388v6.259
	c0,0,27.682-9.387,87.45-9.387c59.77,0,88.55,9.387,88.55,9.387V82.542z"/>
<path fill="#FFFFFF" d="M218,70.026c0,0-28.78-9.388-88.55-9.388c-59.768,0-87.45,9.388-87.45,9.388v6.258
	c0,0,27.682-9.387,87.45-9.387c59.77,0,88.55,9.387,88.55,9.387V70.026z"/>
<path opacity="0.49" fill="#42D17F" d="M218,76.284c0,0-28.78-9.387-88.55-9.387c-59.768,0-87.45,9.387-87.45,9.387v6.258
	c0,0,27.682-9.388,87.45-9.388c59.77,0,88.55,9.388,88.55,9.388V76.284z"/>
<g>
	<path fill="#FFFFFF" d="M129.313,80.027c56.735,0,83.423,6.491,83.423,6.491s44.3,32.243,34.974,40.803
		c-1.58,1.45-3.026,2.105-4.817,2.105c-8.787,0-25.89-14.426-107.874-14.426h-10.368c-81.979,0-99.086,14.426-107.874,14.426
		c-1.792,0-3.237-0.628-4.817-2.079c-9.326-8.56,34.974-40.103,34.974-40.103S72.579,80.027,129.313,80.027 M129.313,76.027
		c-56.635,0-82.393,7.053-83.462,7.353l-0.67,0.188l-0.567,0.404c-0.369,0.263-9.143,6.523-18.156,14.309
		c-17.229,14.884-19.535,21.64-19.77,25.427c-0.162,2.602,0.726,4.87,2.566,6.56c2.309,2.119,4.699,3.105,7.522,3.105
		c2.81,0,5.718-0.905,10.121-2.356C38.79,127.1,63.534,119,124.651,119h10.368c61.123,0,85.864,8.1,97.753,12.018
		c4.402,1.45,7.311,2.382,10.12,2.382c2.823,0,5.214-1,7.521-3.118c1.829-1.679,2.718-3.944,2.57-6.54
		c-0.217-3.811-2.496-10.636-19.721-25.824c-9.019-7.952-17.804-14.363-18.174-14.632l-0.64-0.466l-0.769-0.188
		C212.573,82.362,185.878,76.027,129.313,76.027L129.313,76.027z"/>
</g>
</svg>
